# Exported from 3D Builder
mtllib Ostacolo centrale arancione.mtl

o Object.1
v 3.077175 5.881344 22.328154
v -3.773315 5.791012 22.767132
v 3.052814 5.882565 22.985933
v -3.775842 5.982662 22.766512
v 3.050215 6.074215 22.985304
v 3.074686 6.071774 22.327534
v -3.751485 5.980221 22.108725
v -3.748891 5.789791 22.109344
v 3.318784 5.894771 26.729389
v -4.174311 5.792232 25.569275
v -4.176834 5.983882 25.568653
v 3.415019 6.083980 25.804392
v 3.417580 5.893550 25.805012
v -4.075553 5.789791 24.644907
v 3.316266 6.086421 26.728760
v -4.078066 5.981441 24.644278
v -3.833496 4.044189 1.566278
v -4.362247 6.745605 1.499607
v -4.279682 4.072265 1.605503
v -4.291837 3.957519 1.414768
v -3.813550 6.867675 1.270611
v -3.798472 6.766356 1.462118
v -4.377176 6.835936 1.308138
v -3.845770 3.939208 1.375515
v 3.978684 4.926757 2.807991
v -4.130065 4.885253 2.649261
v 4.001305 4.211425 1.860134
v 4.000680 4.135742 1.928741
v -4.108617 4.016113 1.838629
v 3.979270 5.002440 2.739384
v -4.108031 4.091796 1.770021
v -4.130657 4.808348 2.717878
v 2.268698 5.614013 1.314327
v 2.296970 5.899653 29.593750
v 2.266180 5.806884 1.313698
v 3.231408 5.718989 29.592844
v 3.228914 5.911860 29.592215
v 2.299492 5.708003 29.594370
v 3.198125 5.817870 1.312172
v 3.200619 5.627440 1.312792
v -4.046838 5.622554 29.671179
v -3.182775 5.541991 1.196749
v -4.049356 5.815425 29.670559
v -3.185289 5.733642 1.196129
v -3.119180 5.827632 29.727617
v -2.252590 5.555419 1.253817
v -3.116653 5.635982 29.728247
v -2.255094 5.745849 1.253187
v 4.619367 3.222656 0.924141
v 4.594633 4.036864 1.813709
v -4.703929 3.940429 1.634571
v -4.667050 3.166503 0.743753
v -4.666984 3.085937 0.808975
v 4.619377 3.302001 0.858929
v 4.594643 4.116210 1.748478
v -4.703938 3.859863 1.699802
v -3.871114 5.156249 2.936327
v -4.091060 3.024902 0.511801
v -3.321397 5.162352 2.945120
v -3.322761 5.341795 2.878992
v -4.092529 3.137207 0.512726
v -4.718091 3.129882 0.502722
v -4.716632 3.017578 0.501797
v -3.872478 5.335692 2.870209
v 3.122952 5.375975 2.839491
v 4.163163 3.247070 0.644133
v 4.779956 3.256835 0.653984
v 3.684804 5.383299 2.848474
v 4.781396 3.144531 0.654165
v 4.164640 3.135986 0.644304
v 3.124225 5.196532 2.905619
v 3.686192 5.203856 2.914602
v -4.749581 5.321043 2.116806
v -4.786422 5.515135 3.047421
v 4.736149 5.643309 3.354923
v 4.772999 5.450438 2.424309
v 4.770396 5.640868 2.423679
v 4.738633 5.451659 3.355543
v -4.752099 5.512694 2.116177
v -4.783833 5.324706 3.048040
v 4.254677 6.873778 1.590836
v 3.657324 6.853026 1.627791
v 3.727658 4.063720 1.542961
v 4.207422 4.045409 1.504242
v 4.239642 6.975096 1.399338
v 3.642390 6.943358 1.436331
v 4.219706 4.152832 1.695005
v 3.739855 4.177246 1.733686
v -4.085309 6.738280 1.791222
v -4.091527 5.952147 2.675545
v 4.016559 6.071776 2.844584
v -4.083688 6.662597 1.723101
v 4.024326 6.781005 1.892140
v -4.089934 5.876463 2.607414
v 4.022729 6.857909 1.960270
v 4.018104 5.994871 2.776453
v 4.551666 7.780760 0.942395
v 4.559786 7.011718 1.838648
v -4.610636 6.757811 1.592915
v -4.606826 7.565917 0.698073
v -4.608962 7.645262 0.762770
v -4.612772 6.837157 1.657622
v 4.553706 7.701415 0.877697
v 4.561841 6.931151 1.773941
v 3.792593 5.725096 3.057405
v 4.721262 7.849120 0.638859
v 3.243048 5.717772 3.048622
v 4.104631 7.840575 0.628998
v 3.246495 5.537108 2.983667
v 4.106156 7.728270 0.629551
v 4.722702 7.736815 0.639412
v 3.795974 5.545653 2.992450
v -3.877427 5.673827 2.791960
v -4.283015 7.728270 0.494387
v -3.327930 5.681151 2.800743
v -4.281538 7.617186 0.496037
v -3.873994 5.494383 2.727005
v -4.899551 7.720946 0.484526
v -4.898092 7.607420 0.486176
v -3.324496 5.501708 2.735788
v -10.786177 4.852291 29.567152
v -8.571360 4.881587 29.602552
v -8.535797 4.875484 27.387491
v -10.762150 5.712886 27.349258
v -10.750690 4.844966 27.352093
v -8.547332 5.742183 27.384661
v -10.797712 5.720210 29.564320
v -8.582828 5.749507 29.599720
v -10.466181 4.821774 19.877031
v -10.477721 5.688473 19.874197
v -8.262784 5.717770 19.844053
v -8.281356 4.842526 17.631748
v -8.292815 5.711667 17.628916
v -10.507747 5.681149 17.659071
v -10.496280 4.814450 17.661913
v -8.251245 4.851071 19.846886
v 7.664372 5.090328 27.612692
v 7.720505 5.097651 29.827324
v 9.934952 5.126949 29.771105
v 9.923403 5.996089 29.768282
v 9.867336 5.986324 27.553650
v 7.652894 5.958248 27.609869
v 9.878809 5.119625 27.556484
v 7.708971 5.965571 29.824492
v 8.185545 5.935055 18.504713
v 8.058135 5.941159 20.716389
v 8.069632 5.073239 20.719221
v 10.408575 5.098874 18.634890
v 10.397111 5.964352 18.632067
v 8.197090 5.067135 18.507545
v 10.281112 5.102536 20.846565
v 10.269615 5.970456 20.843742
v -10.415422 5.008542 17.979343
v 10.063264 5.806881 18.848198
v 10.070469 5.288083 18.849886
v 9.423029 5.312496 29.469439
v 9.415781 5.831294 29.467693
v -10.340181 5.567623 29.151951
v -10.333211 5.043941 29.153658
v -10.422360 5.531003 17.977627
v 9.053908 8.371579 13.845997
v 8.634474 6.982419 14.141941
v 9.224712 8.648678 12.781324
v 9.932568 8.437497 12.842828
v 9.764902 8.170163 13.907509
v 9.697210 7.833249 13.584518
v 9.345028 6.779782 14.203443
v 8.241865 5.198972 12.849922
v 9.136669 5.646970 12.898741
v 8.953602 5.002439 12.911425
v 9.043017 8.010251 12.794008
v 9.753334 7.807614 12.855520
v 8.425142 5.844724 12.837229
v 9.368755 6.763913 13.874111
v 8.658897 6.967771 13.812609
v 8.988077 8.039548 13.523006
v 13.161356 5.264890 14.979410
v 13.154919 5.197751 14.444084
v 13.669674 4.865720 14.512118
v 13.636838 4.967038 15.042305
v 14.249211 5.068357 14.537315
v 14.167091 5.146482 15.065173
v 14.454709 5.635983 14.501143
v 14.356099 5.673825 15.032053
v 14.138758 6.174314 14.431486
v 14.062606 6.149899 14.967041
v 13.526623 6.232907 14.379053
v 13.505460 6.221921 14.919958
v 13.093616 5.805661 14.385414
v 13.108875 5.838620 14.925547
v 13.558827 5.168454 16.257818
v 14.021494 5.318601 16.278103
v 14.187642 5.773923 16.248911
v 13.931019 6.204831 16.191853
v 13.443109 6.267087 16.150549
v 13.084184 5.908200 16.154871
v 13.138554 5.424802 16.202877
v 15.057002 6.180418 13.304987
v 13.198501 6.531980 14.406643
v 14.722921 6.094967 14.538736
v 14.285470 4.560544 14.569263
v 12.760698 4.995114 14.437180
v 12.614157 4.810789 13.178587
v 14.513227 4.271238 13.342991
v 13.157836 6.717527 13.140593
v 7.126743 5.356444 1.017382
v 8.289511 3.428954 4.310352
v 7.566025 5.179442 4.419852
v 9.701759 2.188720 4.230758
v 11.425917 1.528320 0.882198
v 11.515276 1.666259 4.196845
v 13.448564 1.877441 0.851614
v 13.375770 1.984862 4.215318
v 14.910080 3.066405 4.282523
v 16.111221 4.877929 0.850374
v 16.220503 6.929930 0.879957
v 15.926991 6.611326 4.502861
v 15.823937 4.726562 4.385148
v 15.200235 8.347165 4.612333
v 13.893643 10.186766 0.971396
v 13.789044 9.593503 4.691955
v 11.918766 10.747068 1.015141
v 11.975300 10.117185 4.725878
v 9.894849 10.396727 1.045726
v 10.116112 9.799802 4.707367
v 8.224412 9.205320 1.057074
v 8.577120 8.702391 4.640190
v 7.668706 7.060545 4.537565
v 8.192979 3.217772 8.266773
v 7.445623 5.024412 8.136416
v 9.650013 1.934813 8.429078
v 11.520148 1.395262 8.591165
v 13.438122 1.732176 8.720951
v 15.026713 2.877196 8.792725
v 16.067717 6.530759 8.719665
v 15.962125 4.578856 8.792258
v 15.317822 8.325192 8.589316
v 13.864280 9.620358 8.427011
v 11.992228 10.153806 8.264915
v 10.073235 9.819333 8.135129
v 8.487779 8.679196 8.063355
v 7.550632 6.971433 8.063813
v 15.272399 2.674558 12.875594
v 15.610505 8.945309 12.641869
v 9.582741 10.655515 12.120019
v 7.760316 9.345699 12.037554
v 8.443501 0.280762 0.000002
v 14.282628 -0.031738 0.000002
v 12.965680 2.431639 13.347157
v 15.212241 4.970701 13.410616
v 7.235987 7.407225 1.046965
v 9.078209 12.364499 0.488923
v 12.033072 12.874753 0.501817
v 14.916392 12.047117 0.501817
v 15.428754 8.822020 0.923150
v 17.159719 10.061033 0.488923
v 18.156452 4.301757 0.436699
v 15.121785 3.076171 0.840265
v 9.453394 2.098388 0.925943
v 7.920410 3.466796 0.974190
v 6.194269 2.242431 0.384466
v 5.034115 4.996337 0.407717
v 5.194637 7.998045 0.436699
v 5.205843 8.035888 0.000002
v 5.044682 5.032958 0.000002
v 6.636908 10.622557 0.465672
v 9.089920 12.406004 0.000003
v 6.648533 10.664061 0.000003
v 12.044575 12.915037 0.000003
v 14.928723 12.091063 0.000003
v 17.170650 10.098875 0.000003
v 18.314362 7.290038 0.465672
v 18.325788 7.331542 0.000002
v 18.167860 4.342040 0.000002
v 16.711943 1.669922 0.407717
v 16.723749 1.710205 0.000002
v 14.271146 -0.069580 0.384466
v 11.315853 -0.582275 0.371572
v 11.327993 -0.540771 0.000001
v 8.432028 0.240478 0.371572
v 6.205322 2.283935 0.000002
v 6.560337 5.134275 12.121496
v 7.419369 3.061522 12.271279
v 9.093277 1.588133 12.457761
v 11.243679 0.975340 12.644004
v 13.448774 1.362303 12.793130
v 14.379884 3.455808 13.411025
v 16.350719 4.641111 12.875061
v 16.470234 6.876218 12.791653
v 15.305501 6.702878 13.346014
v 14.640895 8.314206 13.230000
v 13.938476 10.428463 12.455387
v 13.344995 9.456784 13.085566
v 11.786729 11.037594 12.269144
v 11.679021 9.931638 12.941303
v 9.969923 9.627682 12.825804
v 6.681673 7.376706 12.038078
v 7.724354 7.094724 12.762337
v 8.296072 3.754880 12.942963
v 9.591466 2.604979 13.087396
v 11.257078 2.133787 13.231649
v 7.632420 5.363767 12.826948
v 8.559477 8.616940 12.761936
v 8.256523 5.571286 13.901911
v 9.080383 5.671384 13.627739
v 8.964416 5.361325 13.963413
v 8.370258 5.872800 13.566227
v -1.233156 -3.572999 12.849931
v -1.112077 -4.305421 12.911432
v 1.970537 -2.958986 13.846005
v 2.291710 -2.991944 12.781323
v 1.764681 -3.769532 13.584517
v 2.413432 -3.720704 12.842827
v 0.534184 -3.199464 13.812617
v 0.535481 -3.172609 14.141940
v 2.093117 -3.684083 13.907508
v 0.658243 -3.897706 14.203452
v -0.460803 -4.199220 12.898739
v 1.643021 -3.039552 13.523015
v 1.638481 -3.104249 12.794017
v 1.761134 -3.829347 12.855519
v -0.581214 -3.463136 12.837237
v -0.578244 -3.403322 13.566236
v 0.656264 -3.927003 13.874109
v 0.873444 -8.690187 15.025023
v 0.824101 -8.762207 14.491776
v 1.352041 -9.074707 14.515560
v 1.359255 -8.973390 15.046889
v 1.923454 -8.864747 14.494026
v 1.886360 -8.771973 15.027092
v 2.058733 -8.237306 14.980553
v 2.110932 -8.281250 14.443396
v 1.771915 -7.768555 14.401777
v 1.745212 -7.773438 14.942320
v 1.160495 -7.719727 14.400518
v 1.182968 -7.728272 14.941166
v 0.739329 -8.159180 14.440573
v 0.796325 -8.131104 14.977978
v 1.372626 -8.790284 16.265972
v 1.835492 -8.618164 16.248547
v 1.988413 -8.143311 16.207586
v 1.218970 -7.690430 16.172905
v 0.944474 -8.543701 16.246737
v 0.876415 -8.052979 16.205307
v 1.713154 -7.733155 16.173914
v 2.343428 -9.051515 14.538734
v 2.081058 -7.490235 14.406651
v 0.511477 -7.749024 14.437187
v 0.281169 -7.697754 13.178595
v 0.606186 -9.647217 13.342990
v 2.235253 -7.365723 13.140591
v 2.561924 -9.312744 13.304985
v 0.773966 -9.312744 14.569271
v -2.814815 -4.378662 4.310351
v -1.551950 -2.973633 4.419851
v -3.528959 -5.996093 0.925942
v -3.342325 -6.179199 4.230757
v -3.036206 -8.049316 4.196844
v -2.011955 -9.704588 0.851612
v -1.951196 -9.592285 4.215316
v -0.306661 -10.513915 4.282522
v 1.574685 -10.633544 4.385146
v 3.732238 -10.052488 0.879955
v 3.319537 -9.918212 4.502868
v 5.105762 -8.527831 0.923148
v 4.581291 -8.518065 4.612340
v 5.683372 -6.550292 0.971394
v 5.111563 -6.706542 4.691953
v 5.345227 -4.530029 1.015139
v 4.803349 -4.847412 4.725876
v 4.164683 -2.844238 1.045724
v 3.717482 -3.308105 4.707365
v 2.071364 -2.387695 4.640189
v 0.190699 -2.269287 4.537564
v -3.049342 -4.375000 8.266782
v -1.745169 -2.932129 8.136415
v -3.596427 -6.246338 8.429078
v -3.275578 -8.171387 8.591174
v 4.616658 -8.637695 8.589314
v 5.163128 -6.770020 8.427009
v 4.842579 -4.848633 8.264913
v 3.715245 -3.264161 8.135138
v 2.010743 -2.308350 8.063364
v 0.062206 -2.191163 8.063822
v -3.517601 -3.752442 12.271279
v -2.016461 -2.086183 12.121496
v -4.142754 -5.892334 12.457760
v -3.773529 -8.094482 12.644012
v -2.480595 -9.924316 12.793139
v -0.521829 -11.016846 12.875593
v 3.795030 -10.297852 12.791651
v 5.294478 -8.636475 12.641867
v 5.552628 -4.283448 12.269142
v 4.258797 -2.454835 12.120018
v 2.297861 -1.372072 12.037553
v -2.755077 -0.758056 0.000001
v 3.013241 0.198975 0.000002
v 5.634925 -1.253662 0.000001
v 7.358810 -3.713378 0.000001
v -5.111501 -8.819578 0.000000
v -0.767648 -12.735593 0.000000
v -1.717994 -9.030762 13.347157
v -1.580984 -2.507324 1.017381
v 0.321076 -1.719970 1.046964
v -2.795670 -0.759277 0.407716
v 2.369435 -1.851806 1.057082
v 5.590436 -1.271972 0.488922
v 7.808420 -6.677245 0.501824
v 1.832154 -10.827635 0.850372
v 2.185480 -12.918698 0.436697
v -0.218751 -10.710447 0.840263
v -0.808928 -12.744138 0.407715
v -3.427431 -11.278074 0.384474
v -3.192866 -8.021238 0.882197
v -5.152785 -8.826902 0.371571
v -5.645096 -5.874022 0.371571
v -2.953961 -4.025878 0.974189
v -4.804122 -2.993164 0.384475
v -0.019896 0.380859 0.436699
v 0.020916 0.383301 0.000002
v 2.971613 0.190430 0.465681
v 7.317845 -3.718261 0.501824
v 7.850229 -6.667480 0.000001
v 6.967189 -9.555662 0.488921
v 7.008578 -9.549559 0.000000
v 4.958677 -11.787107 0.465679
v 5.000760 -11.777342 0.000000
v 2.226002 -12.913815 0.000000
v -3.387219 -11.274412 0.000000
v -5.603764 -5.864257 0.000001
v -4.762017 -2.983398 0.000001
v -2.520091 -4.246827 12.942962
v -1.357462 -2.957765 12.826947
v -3.004558 -5.902100 13.087395
v -2.719609 -7.617188 13.231657
v -0.199358 -9.873047 13.411024
v 1.721070 -11.142578 12.875069
v 1.534855 -9.980469 13.410614
v 3.142788 -9.318848 13.346012
v 4.304749 -8.028564 13.229998
v 5.922439 -6.488038 12.455385
v 4.791274 -6.364747 13.085564
v 3.503692 -3.242189 12.825803
v 1.985237 -2.401124 12.761935
v 0.060298 -1.232911 12.038077
v 0.250437 -2.298585 12.762336
v 4.504735 -4.660645 12.941311
v -0.903017 -3.432618 13.901910
v -0.456722 -4.136963 13.627737
v -0.780542 -4.162599 13.963411
v -13.686415 4.360350 12.842828
v -13.536297 3.492429 13.846005
v -12.115252 3.198240 14.141940
v -13.176409 3.508298 12.794017
v -13.825007 3.636472 12.781323
v -13.063637 4.176023 13.584528
v -13.397634 4.218748 13.907509
v -11.978447 3.916013 14.203453
v -10.990474 3.024900 13.566236
v -10.314737 2.961424 12.849921
v -10.850574 3.753660 13.627738
v -10.178209 3.681638 12.911433
v -13.201738 3.449705 13.523015
v -13.038364 4.232175 12.855520
v -10.966446 3.074949 12.837237
v -10.825754 3.809812 12.898740
v -11.965930 3.945310 13.874111
v -12.104017 3.221433 13.812608
v -11.776529 8.460690 14.992800
v -11.826260 8.489987 14.455385
v -11.557605 7.930905 14.439916
v -11.525657 7.971189 14.980048
v -10.957019 7.794186 14.440546
v -10.979425 7.840573 14.980545
v -10.535198 8.193357 14.995375
v -10.480392 8.178708 14.457731
v -10.477373 8.790280 14.477158
v -10.536024 8.741452 15.012721
v -10.964062 9.168698 14.483433
v -10.979640 9.102779 15.019960
v -11.554152 9.046628 14.475374
v -11.524770 8.977048 15.011854
v -11.490566 7.982174 16.211729
v -11.700246 8.437497 16.224594
v -10.620825 8.668210 16.240759
v -11.004368 8.992916 16.247663
v -11.002470 7.883298 16.212606
v -10.615631 8.175046 16.225710
v -11.481753 8.889156 16.240273
v -11.881086 9.659420 13.304987
v -12.250249 7.724607 13.140593
v -12.066394 7.780759 14.406652
v -10.207249 9.033199 14.569273
v -10.504176 7.478024 14.437189
v -9.937440 9.282224 13.342991
v -10.306126 7.349851 13.178596
v -11.768958 9.335934 14.538736
v -8.557698 3.151855 4.310361
v -10.227118 2.279052 4.419862
v -7.431061 4.672850 4.230767
v -7.074282 6.520995 4.196846
v -7.459971 8.430174 0.851614
v -7.553512 8.350827 4.215318
v -8.793337 9.999998 0.840266
v -8.775555 9.793698 4.282524
v -10.499408 10.556638 4.385149
v -12.382141 10.495603 4.502871
v -14.544065 9.799803 0.923150
v -14.053274 9.609373 4.612342
v -15.769363 8.151854 0.971396
v -15.176064 8.103024 4.691955
v -16.155272 6.140136 1.015141
v -15.534597 6.251219 4.725878
v -15.052931 4.428710 4.707366
v -13.830930 2.988280 4.640189
v -12.108165 2.221679 4.537574
v -8.333603 3.079833 8.266783
v -10.059964 2.177733 8.136415
v -7.172448 4.643553 8.429079
v -6.808030 6.555173 8.591176
v -7.311065 8.436277 8.720952
v -8.583009 9.913327 8.792726
v -12.321983 10.632321 8.719673
v -10.369527 10.705564 8.792268
v -15.206891 8.173825 8.427011
v -15.572134 6.262205 8.264915
v -13.795473 2.901610 8.063364
v -12.009903 2.111815 8.063822
v -6.363923 6.317136 12.644014
v -10.457055 11.086422 12.875071
v -12.698084 11.008297 12.791653
v -14.681297 9.973141 12.641869
v -14.395720 2.111814 12.037553
v -17.558710 3.175048 0.000002
v -7.210557 1.184082 0.000002
v -18.325788 6.071776 0.000002
v -5.421950 3.591308 0.000002
v -17.760664 9.012450 0.000003
v -7.969252 7.902829 13.347158
v -9.100334 9.223629 13.411026
v -10.358926 1.846923 1.017391
v -12.416541 1.759033 1.046955
v -12.823674 -0.323486 0.436689
v -14.293743 2.596435 1.057083
v -15.630274 4.154052 1.045725
v -17.517963 3.161621 0.488922
v -17.718283 9.005125 0.501826
v -12.725408 10.756834 0.879958
v -10.674188 10.822752 0.850375
v -6.933724 6.450194 0.882199
v -4.814298 6.530760 0.371573
v -7.321417 4.434813 0.925953
v -8.546807 2.780761 0.974190
v -7.170159 1.171875 0.384475
v -9.826409 -0.220947 0.407716
v -12.864086 -0.313721 0.000002
v -9.869053 -0.218506 0.000011
v -15.569116 0.881347 0.465681
v -15.605737 0.905762 0.000002
v -18.284966 6.059569 0.501826
v -15.930048 11.412352 0.488923
v -15.971151 11.420897 0.000003
v -13.272253 12.810057 0.465682
v -13.314920 12.814939 0.000003
v -10.317266 12.917478 0.000003
v -10.275045 12.918698 0.436700
v -7.532031 11.705320 0.407718
v -7.572047 11.716307 0.000003
v -5.582635 9.423826 0.384476
v -5.622804 9.436033 0.000003
v -4.856555 6.533202 0.000002
v -5.382101 3.580322 0.371572
v -10.100576 1.285399 12.121496
v -8.111383 2.341307 12.271270
v -8.876363 3.146971 12.942971
v -10.416037 2.329100 12.826947
v -6.783692 4.119871 12.457771
v -6.943032 8.476560 12.793140
v -8.403804 10.178219 12.875595
v -10.690485 9.926754 13.410616
v -12.426086 9.868160 13.346014
v -13.963716 9.057613 13.230000
v -16.016209 8.168941 12.455387
v -14.995295 7.672116 13.085566
v -16.433569 5.981443 12.269144
v -15.321413 5.966794 12.941313
v -15.855805 3.817137 12.120018
v -12.342163 1.209715 12.038068
v -12.150370 2.276609 12.762336
v -14.872347 4.293211 12.825804
v -7.846014 4.526365 13.087397
v -7.520873 6.231687 13.231659
v -13.740822 2.974851 12.761935
v -10.677105 2.937010 13.901919
v -10.538995 3.663328 13.963403
v -8.202064 -3.868409 10.304879
v 1.535809 -11.003417 8.776053
v 3.417303 -10.233153 8.700484
v 3.659115 -10.340575 10.736474
v 8.470336 -4.212646 8.636702
v 8.641226 -4.309083 10.667875
v -0.209753 10.494383 8.434354
v -0.354035 10.798337 10.451280
v -15.374542 8.245848 8.393517
v -15.777803 8.251950 10.407706
v -16.184933 6.116940 10.227547
v -15.231396 4.289549 8.091622
v -15.623184 4.017332 10.084057
v -14.236933 2.375487 10.009679
v -7.995440 -3.659668 8.298101
v 15.178395 2.757567 8.777266
v 15.303899 2.663572 10.818701
v 16.250889 6.563718 8.699075
v 16.451193 6.730954 10.735064
v 15.469790 8.431394 8.562566
v 13.955060 9.780271 8.393546
v 12.015058 10.336911 8.228894
v -7.860715 -3.533936 8.327494
v -2.150128 -9.760741 8.720950
v -0.483272 -10.865478 10.834159
v -0.444424 -10.709228 8.792724
v 1.612150 -10.986327 10.833673
v 1.506617 -10.815429 8.792266
v 3.555221 -10.181884 10.755662
v 8.328573 -4.086914 8.655137
v -14.047423 9.730222 8.589316
v -15.462829 4.096678 10.127573
v -8.068282 -3.740235 10.334272
v 15.145350 2.760008 10.834159
v 15.026732 2.877196 8.792725
v 16.067753 6.530759 8.719673
v 13.900639 10.021970 10.441199
v 13.864318 9.620358 8.427011
v 11.888820 10.592038 10.267030
v 11.992246 10.153806 8.264915
v -2.263415 -9.908446 8.702725
v -2.316248 -9.843749 10.757044
v -2.429096 -9.990233 10.738820
v -0.496271 -10.887450 8.778275
v -0.534437 -11.040038 10.819710
v 1.642973 -11.164550 10.817460
v 3.312294 -10.078124 8.719671
v 8.500864 -4.179688 10.686310
v -0.201566 10.307614 8.463698
v -12.366692 10.820310 8.696280
v -0.346696 10.610349 10.480624
v -12.555476 11.004636 10.732270
v -14.164502 9.877927 8.562566
v -14.364744 9.852292 10.615587
v -12.510364 10.817868 10.755664
v -14.483057 9.993894 10.588837
v -15.611874 8.171385 10.441199
v -15.754285 6.254881 8.225432
v -16.004324 6.113279 10.267030
v -15.066739 4.385985 8.135139
v -13.937160 2.770995 8.022585
v -14.094835 2.512205 10.050459
v 15.962134 4.578856 8.792268
v 16.140699 4.528807 8.776046
v 16.156075 4.610594 10.833674
v 16.336460 4.564207 10.817452
v 16.268967 6.705319 10.755664
v 15.317870 8.325192 8.589316
v 15.463883 8.634030 10.615587
v 15.614668 8.735349 10.588837
v 13.991562 10.183103 10.407724
v 11.912052 10.775144 10.231000

vt 1.028391 0.828313
vt 1.028391 0.504257
vt 1.169191 0.504257
vt 1.169191 0.828313
vt 1.081773 0.828313
vt 1.081773 0.504257
vt 1.118675 0.504257
vt 1.118675 0.828313
vt 1.169207 0.828313
vt 1.169207 0.504257
vt 1.227360 0.504257
vt 1.227360 0.828313
vt 1.081773 0.828313
vt 1.081773 0.504257
vt 1.118676 0.504257
vt 1.118675 0.828313
vt 0.109841 0.776079
vt 0.096539 0.776079
vt 0.096539 0.706205
vt 0.109841 0.706205
vt 0.109841 0.776079
vt 0.096539 0.776079
vt 0.096539 0.706205
vt 0.109841 0.706205
vt 0.164102 0.828185
vt 0.164102 0.502814
vt 0.236926 0.502814
vt 0.236926 0.828185
vt 0.189590 0.827545
vt 0.189590 0.501222
vt 0.207240 0.501222
vt 0.207240 0.827545
vt 0.164102 0.828185
vt 0.164102 0.502814
vt 0.236926 0.502814
vt 0.236926 0.828185
vt 0.189590 0.827545
vt 0.189590 0.501222
vt 0.207240 0.501222
vt 0.207240 0.827545
vt 0.204843 0.757534
vt 0.178019 0.757534
vt 0.178019 0.616634
vt 0.204843 0.616634
vt 0.204843 0.757534
vt 0.178019 0.757534
vt 0.178019 0.616634
vt 0.204843 0.616634
vt 0.165189 0.828185
vt 0.165189 0.502814
vt 0.235000 0.502814
vt 0.235000 0.828185
vt 0.164102 0.827545
vt 0.164102 0.501222
vt 0.236926 0.501222
vt 0.236926 0.827545
vt 0.165189 0.828185
vt 0.165189 0.502814
vt 0.235000 0.502814
vt 0.235000 0.828185
vt 0.164102 0.827545
vt 0.164102 0.501222
vt 0.236926 0.501222
vt 0.236926 0.827545
vt 0.204843 0.757534
vt 0.178019 0.757534
vt 0.178019 0.616634
vt 0.204843 0.616634
vt 0.204843 0.757534
vt 0.178019 0.757534
vt 0.178019 0.616634
vt 0.204843 0.616634
vt 0.337890 0.828185
vt 0.337890 0.644332
vt 0.236926 0.644332
vt 0.236926 0.828185
vt 0.030732 0.821437
vt 0.030733 0.509812
vt 0.013712 0.509812
vt 0.013712 0.821437
vt 0.337890 0.828185
vt 0.337890 0.644332
vt 0.236926 0.644332
vt 0.236926 0.828185
vt 0.030733 0.821438
vt 0.030733 0.509812
vt 0.013712 0.509812
vt 0.013712 0.821438
vt 0.011274 0.614886
vt 0.028294 0.614886
vt 0.028294 0.720949
vt 0.011273 0.720949
vt 0.011274 0.614886
vt 0.028294 0.614886
vt 0.028294 0.720949
vt 0.011274 0.720949
vt 0.054776 0.828185
vt 0.054776 0.502814
vt 0.164102 0.502814
vt 0.164102 0.828185
vt 0.164102 0.827545
vt 0.164102 0.501222
vt 0.236926 0.501222
vt 0.236926 0.827545
vt 0.054776 0.828185
vt 0.054776 0.502814
vt 0.164102 0.502814
vt 0.164102 0.828185
vt 0.164102 0.827545
vt 0.164102 0.501222
vt 0.236926 0.501222
vt 0.236926 0.827545
vt 0.204843 0.757534
vt 0.178019 0.757534
vt 0.178019 0.616634
vt 0.204843 0.616634
vt 0.204843 0.757534
vt 0.178019 0.757534
vt 0.178019 0.616634
vt 0.204843 0.616634
vt 0.054776 0.828185
vt 0.054776 0.502814
vt 0.164102 0.502814
vt 0.164102 0.828185
vt 0.164102 0.827545
vt 0.164102 0.501222
vt 0.236926 0.501222
vt 0.236926 0.827545
vt 0.054776 0.828185
vt 0.054776 0.502814
vt 0.164102 0.502814
vt 0.164102 0.828185
vt 0.164102 0.827545
vt 0.164102 0.501222
vt 0.236926 0.501222
vt 0.236926 0.827545
vt 0.204843 0.757534
vt 0.178019 0.757534
vt 0.178019 0.616634
vt 0.204843 0.616634
vt 0.204843 0.757534
vt 0.178019 0.757534
vt 0.178019 0.616634
vt 0.204843 0.616634
vt 0.164102 0.827806
vt 0.164102 0.586722
vt 0.054776 0.586722
vt 0.054776 0.827806
vt 0.030732 0.821437
vt 0.030733 0.509812
vt 0.013712 0.509812
vt 0.013712 0.821437
vt 0.164102 0.827806
vt 0.164102 0.586722
vt 0.054776 0.586722
vt 0.054776 0.827806
vt 0.030733 0.821438
vt 0.030733 0.509812
vt 0.013712 0.509812
vt 0.013712 0.821438
vt 0.011274 0.614886
vt 0.028294 0.614886
vt 0.028294 0.720949
vt 0.011273 0.720949
vt 0.011274 0.614886
vt 0.028294 0.614886
vt 0.028294 0.720949
vt 0.011274 0.720949
vt 0.164102 0.502380
vt 0.164102 0.828023
vt 0.236926 0.828023
vt 0.236926 0.502380
vt 0.004491 0.517846
vt 0.003766 0.816527
vt 0.042719 0.816527
vt 0.041994 0.517846
vt 0.164102 0.502380
vt 0.164102 0.828023
vt 0.236926 0.828023
vt 0.236926 0.502380
vt 0.004491 0.517846
vt 0.003766 0.816527
vt 0.042719 0.816527
vt 0.041994 0.517846
vt 0.092987 0.667238
vt 0.119811 0.667238
vt 0.119811 0.612640
vt 0.092987 0.612640
vt 0.094486 0.667151
vt 0.118312 0.667151
vt 0.118312 0.612727
vt 0.094486 0.612727
vt 0.164102 0.502380
vt 0.236926 0.502380
vt 0.236926 0.828023
vt 0.164102 0.828023
vt 0.004491 0.517846
vt 0.041994 0.517846
vt 0.042719 0.816527
vt 0.003766 0.816527
vt 0.164102 0.502380
vt 0.236926 0.502380
vt 0.236926 0.828023
vt 0.164102 0.828023
vt 0.004491 0.517846
vt 0.041994 0.517846
vt 0.042719 0.816527
vt 0.003766 0.816527
vt 0.092987 0.667238
vt 0.092987 0.612640
vt 0.119811 0.612640
vt 0.119811 0.667238
vt 0.094486 0.667151
vt 0.094486 0.612727
vt 0.118312 0.612727
vt 0.118312 0.667151
vt 0.054776 0.828185
vt 0.054776 0.502814
vt 0.339193 0.502814
vt 0.339193 0.828185
vt 0.164102 0.827545
vt 0.164102 0.501222
vt 0.236926 0.501222
vt 0.236926 0.827545
vt 0.054776 0.828185
vt 0.054776 0.502814
vt 0.339193 0.502814
vt 0.339193 0.828185
vt 0.164102 0.827545
vt 0.164102 0.501222
vt 0.236926 0.501222
vt 0.236926 0.827545
vt 0.204843 0.757534
vt 0.178019 0.757534
vt 0.178019 0.616634
vt 0.204843 0.616634
vt 0.204843 0.757534
vt 0.178019 0.757534
vt 0.178019 0.616634
vt 0.204843 0.616634
vt 0.165189 0.828185
vt 0.165189 0.502814
vt 0.235000 0.502814
vt 0.235000 0.828185
vt 0.164102 0.827545
vt 0.164102 0.501222
vt 0.236926 0.501222
vt 0.236926 0.827545
vt 0.165189 0.828185
vt 0.165189 0.502814
vt 0.235000 0.502814
vt 0.235000 0.828185
vt 0.164102 0.827545
vt 0.164102 0.501222
vt 0.236926 0.501222
vt 0.236926 0.827545
vt 0.204843 0.757534
vt 0.178019 0.757534
vt 0.178019 0.616634
vt 0.204843 0.616634
vt 0.204843 0.757534
vt 0.178019 0.757534
vt 0.178019 0.616634
vt 0.204843 0.616634
vt 0.337890 0.828185
vt 0.337890 0.644332
vt 0.236926 0.644332
vt 0.236926 0.828185
vt 0.030732 0.821437
vt 0.030733 0.509812
vt 0.013712 0.509812
vt 0.013712 0.821437
vt 0.337890 0.828185
vt 0.337890 0.644332
vt 0.236926 0.644332
vt 0.236926 0.828185
vt 0.030733 0.821438
vt 0.030733 0.509812
vt 0.013712 0.509812
vt 0.013712 0.821438
vt 0.011274 0.614886
vt 0.028294 0.614886
vt 0.028294 0.720949
vt 0.011273 0.720949
vt 0.011274 0.614886
vt 0.028294 0.614886
vt 0.028294 0.720949
vt 0.011274 0.720949
vt 0.164102 0.827806
vt 0.164102 0.586722
vt 0.054776 0.586722
vt 0.054776 0.827806
vt 0.030732 0.821437
vt 0.030733 0.509812
vt 0.013712 0.509812
vt 0.013712 0.821437
vt 0.164102 0.827806
vt 0.164102 0.586722
vt 0.054776 0.586722
vt 0.054776 0.827806
vt 0.030733 0.821438
vt 0.030733 0.509812
vt 0.013712 0.509812
vt 0.013712 0.821438
vt 0.011274 0.614886
vt 0.028294 0.614886
vt 0.028294 0.720949
vt 0.011273 0.720949
vt 0.011274 0.614886
vt 0.028294 0.614886
vt 0.028294 0.720949
vt 0.011274 0.720949
vt 0.164102 0.503385
vt 0.164102 0.827569
vt 0.236926 0.827569
vt 0.236926 0.503385
vt 0.004823 0.518769
vt 0.004090 0.816109
vt 0.043478 0.816109
vt 0.042745 0.518769
vt 0.164102 0.503385
vt 0.164102 0.827569
vt 0.236926 0.827569
vt 0.236926 0.503385
vt 0.004823 0.518769
vt 0.004090 0.816109
vt 0.043478 0.816109
vt 0.042745 0.518769
vt 0.092987 0.667238
vt 0.119811 0.667238
vt 0.119811 0.612640
vt 0.092987 0.612640
vt 0.094486 0.667151
vt 0.118312 0.667151
vt 0.118312 0.612727
vt 0.094486 0.612727
vt 0.164102 0.503385
vt 0.236926 0.503385
vt 0.236926 0.827569
vt 0.164102 0.827569
vt 0.004823 0.518769
vt 0.042745 0.518769
vt 0.043478 0.816109
vt 0.004090 0.816109
vt 0.164102 0.503385
vt 0.236926 0.503385
vt 0.236926 0.827569
vt 0.164102 0.827569
vt 0.002750 0.516275
vt 0.044884 0.516275
vt 0.045699 0.814860
vt 0.001935 0.814860
vt 0.092987 0.667238
vt 0.092987 0.612640
vt 0.119811 0.612640
vt 0.119811 0.667238
vt 0.094486 0.667151
vt 0.094486 0.612727
vt 0.118312 0.612727
vt 0.118312 0.667151
vt 0.372444 0.782071
vt 0.416521 0.782071
vt 0.416521 0.823611
vt 0.372444 0.823611
vt 0.372444 0.782071
vt 0.416521 0.782071
vt 0.416521 0.823611
vt 0.372444 0.823611
vt 0.372444 0.782071
vt 0.416521 0.782071
vt 0.416521 0.823611
vt 0.372444 0.823611
vt 0.372444 0.782071
vt 0.416521 0.782071
vt 0.416521 0.823611
vt 0.372444 0.823611
vt 0.344188 0.777814
vt 0.444777 0.777814
vt 0.444777 0.827868
vt 0.344188 0.827868
vt 0.344188 0.777814
vt 0.444777 0.777814
vt 0.444777 0.827868
vt 0.344188 0.827868
vt 0.372444 0.782071
vt 0.416521 0.782071
vt 0.416521 0.823611
vt 0.372444 0.823611
vt 0.372444 0.782071
vt 0.416521 0.782071
vt 0.416521 0.823611
vt 0.372444 0.823611
vt 0.372444 0.782071
vt 0.416521 0.782071
vt 0.416521 0.823611
vt 0.372444 0.823611
vt 0.372444 0.782071
vt 0.416521 0.782071
vt 0.416521 0.823611
vt 0.372444 0.823611
vt 0.344188 0.777814
vt 0.444777 0.777814
vt 0.444777 0.827868
vt 0.344188 0.827868
vt 0.344188 0.777814
vt 0.444777 0.777814
vt 0.444777 0.827868
vt 0.344188 0.827868
vt 0.372444 0.782071
vt 0.416521 0.782071
vt 0.416521 0.823611
vt 0.372444 0.823611
vt 0.372444 0.782071
vt 0.416521 0.782071
vt 0.416521 0.823611
vt 0.372444 0.823611
vt 0.372444 0.782071
vt 0.416521 0.782071
vt 0.416521 0.823611
vt 0.372444 0.823611
vt 0.372444 0.782071
vt 0.416521 0.782071
vt 0.416521 0.823611
vt 0.372444 0.823611
vt 0.344188 0.777814
vt 0.444777 0.777814
vt 0.444777 0.827868
vt 0.344188 0.827868
vt 0.344188 0.777814
vt 0.444777 0.777814
vt 0.444777 0.827868
vt 0.344188 0.827868
vt 0.372444 0.782071
vt 0.416521 0.782071
vt 0.416521 0.823611
vt 0.372444 0.823611
vt 0.372444 0.782071
vt 0.416521 0.782071
vt 0.416521 0.823611
vt 0.372444 0.823611
vt 0.372444 0.782071
vt 0.416521 0.782071
vt 0.416521 0.823611
vt 0.372444 0.823611
vt 0.372444 0.782071
vt 0.416521 0.782071
vt 0.416521 0.823611
vt 0.372444 0.823611
vt 0.344188 0.777814
vt 0.444777 0.777814
vt 0.444777 0.827868
vt 0.344188 0.827868
vt 0.344188 0.777814
vt 0.444777 0.777814
vt 0.444777 0.827868
vt 0.344188 0.827868
vt 0.340543 0.927667
vt 0.274221 0.927667
vt 0.274221 0.910402
vt 0.340542 0.910402
vt 0.274221 0.910402
vt 0.274221 0.927667
vt 0.075257 0.927667
vt 0.075257 0.910402
vt 0.075257 0.927667
vt 0.008936 0.927667
vt 0.008936 0.910402
vt 0.075257 0.910402
vt 0.008936 0.910402
vt 0.008936 0.927667
vt 0.340543 0.927667
vt 0.340542 0.910402
vt 0.998747 0.831591
vt 0.447803 0.834021
vt 0.448150 0.668736
vt 0.998094 0.670295
vt 0.442367 0.986127
vt 0.441200 0.842388
vt -0.000777 0.842388
vt -0.001414 0.986127
vt 0.197997 0.319937
vt 0.164919 0.319763
vt 0.165318 0.300692
vt 0.198396 0.300728
vt 0.198396 0.300728
vt 0.165318 0.300692
vt 0.165422 0.275853
vt 0.198501 0.275890
vt 0.198606 0.251052
vt 0.165527 0.251015
vt 0.165305 0.231943
vt 0.198383 0.231846
vt 0.125492 0.298574
vt 0.151208 0.294882
vt 0.165318 0.300692
vt 0.134459 0.312687
vt 0.213797 0.294846
vt 0.239512 0.296513
vt 0.230929 0.310391
vt 0.198396 0.300728
vt 0.151208 0.294882
vt 0.150978 0.275996
vt 0.165422 0.275853
vt 0.165318 0.300692
vt 0.213671 0.275708
vt 0.213797 0.294846
vt 0.198396 0.300728
vt 0.198501 0.275890
vt 0.150748 0.257110
vt 0.123796 0.255186
vt 0.132988 0.241361
vt 0.165527 0.251015
vt 0.237599 0.253278
vt 0.213545 0.256570
vt 0.198606 0.251052
vt 0.229459 0.239060
vt 0.151208 0.294882
vt 0.125492 0.298574
vt 0.116660 0.284684
vt 0.144037 0.280756
vt 0.123796 0.255186
vt 0.150748 0.257110
vt 0.147271 0.271579
vt 0.119079 0.269568
vt 0.213671 0.275708
vt 0.246750 0.275654
vt 0.246877 0.294961
vt 0.213797 0.294846
vt 0.508467 0.259689
vt 0.508467 0.242194
vt 0.527421 0.242194
vt 0.527421 0.259689
vt 0.546314 0.242194
vt 0.546314 0.259689
vt 0.562506 0.242194
vt 0.562506 0.259689
vt 0.435647 0.259689
vt 0.435648 0.242194
vt 0.452016 0.242194
vt 0.452016 0.259689
vt 0.470684 0.242194
vt 0.470684 0.259689
vt 0.489530 0.242194
vt 0.489530 0.259689
vt 0.527421 0.286852
vt 0.508467 0.286852
vt 0.546313 0.286852
vt 0.562506 0.286852
vt 0.452016 0.286852
vt 0.435647 0.286852
vt 0.470684 0.286852
vt 0.489530 0.286852
vt 0.289377 0.252572
vt 0.318006 0.255718
vt 0.330749 0.268442
vt 0.318013 0.281160
vt 0.266413 0.261379
vt 0.289376 0.284305
vt 0.266413 0.275502
vt 0.364563 0.331208
vt 0.437174 0.331208
vt 0.430037 0.300152
vt 0.371698 0.300152
vt 0.341074 0.292762
vt 0.341062 0.254941
vt 0.417315 0.254939
vt 0.417320 0.292759
vt 0.371698 0.300152
vt 0.430037 0.300152
vt 0.437174 0.331208
vt 0.364563 0.331208
vt 0.344617 0.827902
vt 0.344617 0.777803
vt 0.444033 0.777803
vt 0.444033 0.827902
vt 0.437174 0.331208
vt 0.364563 0.331208
vt 0.371698 0.300152
vt 0.430037 0.300152
vt 0.364563 0.331208
vt 0.437174 0.331208
vt 0.430037 0.300152
vt 0.371698 0.300152
vt 0.942528 0.189515
vt 0.942529 0.213501
vt 0.836467 0.213501
vt 0.836467 0.189514
vt 0.942528 0.237437
vt 0.836467 0.237437
vt 0.942528 0.261353
vt 0.836467 0.261353
vt 0.942528 0.285236
vt 0.836467 0.285236
vt 0.942528 0.309076
vt 0.836467 0.309076
vt 0.942529 0.325911
vt 0.836467 0.325911
vt 0.942528 0.004153
vt 0.942528 0.021979
vt 0.836467 0.021979
vt 0.836467 0.004153
vt 0.942528 0.045880
vt 0.836467 0.045880
vt 0.942528 0.069797
vt 0.836467 0.069797
vt 0.942528 0.093731
vt 0.836467 0.093731
vt 0.942528 0.117676
vt 0.836467 0.117676
vt 0.942528 0.141632
vt 0.836468 0.141632
vt 0.942528 0.165590
vt 0.836467 0.165590
vt 0.720047 0.213501
vt 0.720046 0.189515
vt 0.720047 0.237437
vt 0.720047 0.261353
vt 0.720046 0.285236
vt 0.720046 0.309076
vt 0.720046 0.325911
vt 0.720047 0.021979
vt 0.720046 0.004153
vt 0.720047 0.045880
vt 0.720047 0.069797
vt 0.720047 0.093731
vt 0.720046 0.117677
vt 0.720046 0.141632
vt 0.720046 0.165590
vt 0.593715 0.213501
vt 0.593715 0.189514
vt 0.593715 0.237437
vt 0.593715 0.261353
vt 0.593715 0.285236
vt 0.593715 0.309076
vt 0.593715 0.325911
vt 0.593715 0.021979
vt 0.593715 0.004153
vt 0.593715 0.045880
vt 0.593714 0.069797
vt 0.593715 0.093731
vt 0.593715 0.117676
vt 0.593715 0.141632
vt 0.593715 0.165590
vt 0.235045 0.015946
vt 0.343463 0.004047
vt 0.451869 0.015945
vt 0.538836 0.049282
vt 0.148091 0.049282
vt 0.587084 0.097456
vt 0.099844 0.097455
vt 0.587084 0.150923
vt 0.099844 0.150923
vt 0.538836 0.199096
vt 0.148085 0.199096
vt 0.451869 0.232432
vt 0.235046 0.232432
vt 0.343464 0.244331
vt 0.178223 0.443814
vt 0.373293 0.443715
vt 0.329932 0.460464
vt 0.275808 0.466481
vt 0.221659 0.460521
vt 0.424728 0.044197
vt 0.345155 0.035410
vt 0.342279 0.003995
vt 0.451260 0.015965
vt 0.265601 0.044233
vt 0.233308 0.015966
vt 0.201820 0.068914
vt 0.145905 0.049487
vt 0.166455 0.104560
vt 0.097420 0.097916
vt 0.166493 0.144114
vt 0.097420 0.151665
vt 0.201927 0.179744
vt 0.145903 0.200094
vt 0.265760 0.204396
vt 0.233306 0.233616
vt 0.345334 0.213184
vt 0.342279 0.245587
vt 0.424887 0.204360
vt 0.451262 0.233616
vt 0.488689 0.179679
vt 0.538662 0.200095
vt 0.524041 0.144032
vt 0.587139 0.151664
vt 0.524003 0.104479
vt 0.587138 0.097916
vt 0.488572 0.068849
vt 0.538653 0.049487
vt 0.960895 0.245445
vt 0.960896 0.285649
vt 0.990243 0.285685
vt 0.990243 0.245466
vt 0.960895 0.326789
vt 0.990243 0.326741
vt 0.960895 0.326789
vt 0.960895 0.286391
vt 0.990243 0.286332
vt 0.990243 0.326741
vt 0.960896 0.245917
vt 0.990243 0.245850
vt 0.960895 0.205385
vt 0.990243 0.205314
vt 0.960895 0.164815
vt 0.990243 0.164741
vt 0.960896 0.124225
vt 0.990243 0.124151
vt 0.960895 0.083635
vt 0.990243 0.083559
vt 0.960896 0.005522
vt 0.960895 0.045430
vt 0.990243 0.045406
vt 0.990243 0.005496
vt 0.960895 0.085351
vt 0.990243 0.085331
vt 0.960895 0.125297
vt 0.990243 0.125285
vt 0.960896 0.165284
vt 0.990243 0.165281
vt 0.960896 0.205327
vt 0.990243 0.205336
vt 0.347666 0.334182
vt 0.405248 0.356434
vt 0.373126 0.368655
vt 0.329686 0.351949
vt 0.437133 0.388474
vt 0.397247 0.392782
vt 0.437130 0.423996
vt 0.397306 0.419563
vt 0.405246 0.456035
vt 0.373293 0.443715
vt 0.347665 0.478287
vt 0.329932 0.460464
vt 0.275665 0.486297
vt 0.275808 0.466481
vt 0.203675 0.478286
vt 0.221659 0.460521
vt 0.145111 0.456971
vt 0.178223 0.443814
vt 0.114221 0.423996
vt 0.154104 0.419688
vt 0.114219 0.388474
vt 0.154045 0.392907
vt 0.146102 0.356435
vt 0.178057 0.368755
vt 0.203672 0.334183
vt 0.221413 0.352005
vt 0.275666 0.326173
vt 0.275526 0.345989
vt 0.178057 0.368755
vt 0.373126 0.368655
vt 0.397247 0.392782
vt 0.154045 0.392907
vt 0.397306 0.419563
vt 0.154104 0.419688
vt 0.329686 0.351949
vt 0.221413 0.352005
vt 0.275526 0.345989
vt 0.150748 0.257110
vt 0.165527 0.251015
vt 0.165527 0.251015
vt 0.198606 0.251052
vt 0.213545 0.256570
vt 0.198606 0.251052
vt 0.246623 0.256346
vt 0.213545 0.256570
vt 0.197997 0.319937
vt 0.164919 0.319763
vt 0.165318 0.300692
vt 0.198396 0.300728
vt 0.198396 0.300728
vt 0.165318 0.300692
vt 0.165422 0.275853
vt 0.198501 0.275890
vt 0.198606 0.251052
vt 0.165527 0.251015
vt 0.165305 0.231943
vt 0.198383 0.231846
vt 0.125492 0.298574
vt 0.151208 0.294882
vt 0.165318 0.300692
vt 0.134459 0.312687
vt 0.213797 0.294846
vt 0.239512 0.296513
vt 0.230929 0.310391
vt 0.198396 0.300728
vt 0.151208 0.294882
vt 0.150978 0.275996
vt 0.165422 0.275853
vt 0.165318 0.300692
vt 0.213671 0.275708
vt 0.213797 0.294846
vt 0.198396 0.300728
vt 0.198501 0.275890
vt 0.150748 0.257110
vt 0.123796 0.255186
vt 0.132988 0.241361
vt 0.165527 0.251015
vt 0.237599 0.253278
vt 0.213545 0.256570
vt 0.198606 0.251052
vt 0.229459 0.239060
vt 0.151208 0.294882
vt 0.125492 0.298574
vt 0.116660 0.284684
vt 0.144037 0.280756
vt 0.123796 0.255186
vt 0.150748 0.257110
vt 0.147271 0.271579
vt 0.119079 0.269568
vt 0.213671 0.275708
vt 0.246750 0.275654
vt 0.246877 0.294961
vt 0.213797 0.294846
vt 0.508467 0.259689
vt 0.508467 0.242194
vt 0.527421 0.242194
vt 0.527421 0.259689
vt 0.546314 0.242194
vt 0.546314 0.259689
vt 0.562506 0.242194
vt 0.562506 0.259689
vt 0.435647 0.259689
vt 0.435648 0.242194
vt 0.452016 0.242194
vt 0.452016 0.259689
vt 0.470684 0.242194
vt 0.470684 0.259689
vt 0.489530 0.242194
vt 0.489530 0.259689
vt 0.527421 0.286852
vt 0.508467 0.286852
vt 0.546313 0.286852
vt 0.562506 0.286852
vt 0.452016 0.286852
vt 0.435647 0.286852
vt 0.470684 0.286852
vt 0.489530 0.286852
vt 0.289377 0.252572
vt 0.318006 0.255718
vt 0.330749 0.268442
vt 0.318013 0.281160
vt 0.266413 0.261379
vt 0.289376 0.284305
vt 0.266413 0.275502
vt 0.364563 0.331208
vt 0.437174 0.331208
vt 0.430037 0.300152
vt 0.371698 0.300152
vt 0.341074 0.292762
vt 0.341062 0.254941
vt 0.417315 0.254939
vt 0.417320 0.292759
vt 0.371698 0.300152
vt 0.430037 0.300152
vt 0.437174 0.331208
vt 0.364563 0.331208
vt 0.344617 0.827902
vt 0.344617 0.777803
vt 0.444033 0.777803
vt 0.444033 0.827902
vt 0.437174 0.331208
vt 0.364563 0.331208
vt 0.371698 0.300152
vt 0.430037 0.300152
vt 0.364563 0.331208
vt 0.437174 0.331208
vt 0.430037 0.300152
vt 0.371698 0.300152
vt 0.942528 0.189515
vt 0.942529 0.213501
vt 0.836467 0.213501
vt 0.836467 0.189514
vt 0.942528 0.237437
vt 0.836467 0.237437
vt 0.942528 0.261353
vt 0.836467 0.261353
vt 0.942528 0.285236
vt 0.836467 0.285236
vt 0.942528 0.309076
vt 0.836467 0.309076
vt 0.942529 0.325911
vt 0.836467 0.325911
vt 0.942528 0.004153
vt 0.942528 0.021979
vt 0.836467 0.021979
vt 0.836467 0.004153
vt 0.942528 0.045880
vt 0.836467 0.045880
vt 0.942528 0.069797
vt 0.836467 0.069797
vt 0.942528 0.093731
vt 0.836467 0.093731
vt 0.942528 0.117676
vt 0.836467 0.117676
vt 0.942528 0.141632
vt 0.836468 0.141632
vt 0.942528 0.165590
vt 0.836467 0.165590
vt 0.720047 0.213501
vt 0.720046 0.189515
vt 0.720047 0.237437
vt 0.720047 0.261353
vt 0.720046 0.285236
vt 0.720046 0.309076
vt 0.720046 0.325911
vt 0.720047 0.021979
vt 0.720046 0.004153
vt 0.720047 0.045880
vt 0.720047 0.069797
vt 0.720047 0.093731
vt 0.720046 0.117677
vt 0.720046 0.141632
vt 0.720046 0.165590
vt 0.593715 0.213501
vt 0.593715 0.189514
vt 0.593715 0.237437
vt 0.593715 0.261353
vt 0.593715 0.285236
vt 0.593715 0.309076
vt 0.593715 0.325911
vt 0.593715 0.021979
vt 0.593715 0.004153
vt 0.593715 0.045880
vt 0.593714 0.069797
vt 0.593715 0.093731
vt 0.593715 0.117676
vt 0.593715 0.141632
vt 0.593715 0.165590
vt 0.235045 0.015946
vt 0.343463 0.004047
vt 0.451869 0.015945
vt 0.538836 0.049282
vt 0.148091 0.049282
vt 0.587084 0.097456
vt 0.099844 0.097455
vt 0.587084 0.150923
vt 0.099844 0.150923
vt 0.538836 0.199096
vt 0.148085 0.199096
vt 0.451869 0.232432
vt 0.235046 0.232432
vt 0.343464 0.244331
vt 0.178223 0.443814
vt 0.373293 0.443715
vt 0.329932 0.460464
vt 0.275808 0.466481
vt 0.221659 0.460521
vt 0.424728 0.044197
vt 0.345155 0.035410
vt 0.342279 0.003995
vt 0.451260 0.015965
vt 0.265601 0.044233
vt 0.233308 0.015966
vt 0.201820 0.068914
vt 0.145905 0.049487
vt 0.166455 0.104560
vt 0.097420 0.097916
vt 0.166493 0.144114
vt 0.097420 0.151665
vt 0.201927 0.179744
vt 0.145903 0.200094
vt 0.265760 0.204396
vt 0.233306 0.233616
vt 0.345334 0.213184
vt 0.342279 0.245587
vt 0.424887 0.204360
vt 0.451262 0.233616
vt 0.488689 0.179679
vt 0.538662 0.200095
vt 0.524041 0.144032
vt 0.587139 0.151664
vt 0.524003 0.104479
vt 0.587138 0.097916
vt 0.488572 0.068849
vt 0.538653 0.049487
vt 0.960895 0.245445
vt 0.960896 0.285649
vt 0.990243 0.285685
vt 0.990243 0.245466
vt 0.960895 0.326789
vt 0.990243 0.326741
vt 0.960895 0.326789
vt 0.960895 0.286391
vt 0.990243 0.286332
vt 0.990243 0.326741
vt 0.960896 0.245917
vt 0.990243 0.245850
vt 0.960895 0.205385
vt 0.990243 0.205314
vt 0.960895 0.164815
vt 0.990243 0.164741
vt 0.960896 0.124225
vt 0.990243 0.124151
vt 0.960895 0.083635
vt 0.990243 0.083559
vt 0.960896 0.005522
vt 0.960895 0.045430
vt 0.990243 0.045406
vt 0.990243 0.005496
vt 0.960895 0.085351
vt 0.990243 0.085331
vt 0.960895 0.125297
vt 0.990243 0.125285
vt 0.960896 0.165284
vt 0.990243 0.165281
vt 0.960896 0.205327
vt 0.990243 0.205336
vt 0.347666 0.334182
vt 0.405248 0.356434
vt 0.373126 0.368655
vt 0.329686 0.351949
vt 0.437133 0.388474
vt 0.397247 0.392782
vt 0.437130 0.423996
vt 0.397306 0.419563
vt 0.405246 0.456035
vt 0.373293 0.443715
vt 0.347665 0.478287
vt 0.329932 0.460464
vt 0.275665 0.486297
vt 0.275808 0.466481
vt 0.203675 0.478286
vt 0.221659 0.460521
vt 0.145111 0.456971
vt 0.178223 0.443814
vt 0.114221 0.423996
vt 0.154104 0.419688
vt 0.114219 0.388474
vt 0.154045 0.392907
vt 0.146102 0.356435
vt 0.178057 0.368755
vt 0.203672 0.334183
vt 0.221413 0.352005
vt 0.275666 0.326173
vt 0.275526 0.345989
vt 0.178057 0.368755
vt 0.373126 0.368655
vt 0.397247 0.392782
vt 0.154045 0.392907
vt 0.397306 0.419563
vt 0.154104 0.419688
vt 0.329686 0.351949
vt 0.221413 0.352005
vt 0.275526 0.345989
vt 0.150748 0.257110
vt 0.165527 0.251015
vt 0.165527 0.251015
vt 0.198606 0.251052
vt 0.213545 0.256570
vt 0.198606 0.251052
vt 0.246623 0.256346
vt 0.213545 0.256570
vt 0.197997 0.319937
vt 0.164919 0.319763
vt 0.165318 0.300692
vt 0.198396 0.300728
vt 0.198396 0.300728
vt 0.165318 0.300692
vt 0.165422 0.275853
vt 0.198501 0.275890
vt 0.198606 0.251052
vt 0.165527 0.251015
vt 0.165305 0.231943
vt 0.198383 0.231846
vt 0.125492 0.298574
vt 0.151208 0.294882
vt 0.165318 0.300692
vt 0.134459 0.312687
vt 0.213797 0.294846
vt 0.239512 0.296513
vt 0.230929 0.310391
vt 0.198396 0.300728
vt 0.151208 0.294882
vt 0.150978 0.275996
vt 0.165422 0.275853
vt 0.165318 0.300692
vt 0.213671 0.275708
vt 0.213797 0.294846
vt 0.198396 0.300728
vt 0.198501 0.275890
vt 0.150748 0.257110
vt 0.123796 0.255186
vt 0.132988 0.241361
vt 0.165527 0.251015
vt 0.237599 0.253278
vt 0.213545 0.256570
vt 0.198606 0.251052
vt 0.229459 0.239060
vt 0.151208 0.294882
vt 0.125492 0.298574
vt 0.116660 0.284684
vt 0.144037 0.280756
vt 0.123796 0.255186
vt 0.150748 0.257110
vt 0.147271 0.271579
vt 0.119079 0.269568
vt 0.213671 0.275708
vt 0.246750 0.275654
vt 0.246877 0.294961
vt 0.213797 0.294846
vt 0.508467 0.259689
vt 0.508467 0.242194
vt 0.527421 0.242194
vt 0.527421 0.259689
vt 0.546314 0.242194
vt 0.546314 0.259689
vt 0.562506 0.242194
vt 0.562506 0.259689
vt 0.435647 0.259689
vt 0.435648 0.242194
vt 0.452016 0.242194
vt 0.452016 0.259689
vt 0.470684 0.242194
vt 0.470684 0.259689
vt 0.489530 0.242194
vt 0.489530 0.259689
vt 0.527421 0.286852
vt 0.508467 0.286852
vt 0.546313 0.286852
vt 0.562506 0.286852
vt 0.452016 0.286852
vt 0.435647 0.286852
vt 0.470684 0.286852
vt 0.489530 0.286852
vt 0.289377 0.252572
vt 0.318006 0.255718
vt 0.330749 0.268442
vt 0.318013 0.281160
vt 0.266413 0.261379
vt 0.289376 0.284305
vt 0.266413 0.275502
vt 0.364563 0.331208
vt 0.437174 0.331208
vt 0.430037 0.300152
vt 0.371698 0.300152
vt 0.341074 0.292762
vt 0.341062 0.254941
vt 0.417315 0.254939
vt 0.417320 0.292759
vt 0.371698 0.300152
vt 0.430037 0.300152
vt 0.437174 0.331208
vt 0.364563 0.331208
vt 0.344617 0.827902
vt 0.344617 0.777803
vt 0.444033 0.777803
vt 0.444033 0.827902
vt 0.437174 0.331208
vt 0.364563 0.331208
vt 0.371698 0.300152
vt 0.430037 0.300152
vt 0.364563 0.331208
vt 0.437174 0.331208
vt 0.430037 0.300152
vt 0.371698 0.300152
vt 0.942528 0.189515
vt 0.942529 0.213501
vt 0.836467 0.213501
vt 0.836467 0.189514
vt 0.942528 0.237437
vt 0.836467 0.237437
vt 0.942528 0.261353
vt 0.836467 0.261353
vt 0.942528 0.285236
vt 0.836467 0.285236
vt 0.942528 0.309076
vt 0.836467 0.309076
vt 0.942529 0.325911
vt 0.836467 0.325911
vt 0.942528 0.004153
vt 0.942528 0.021979
vt 0.836467 0.021979
vt 0.836467 0.004153
vt 0.942528 0.045880
vt 0.836467 0.045880
vt 0.942528 0.069797
vt 0.836467 0.069797
vt 0.942528 0.093731
vt 0.836467 0.093731
vt 0.942528 0.117676
vt 0.836467 0.117676
vt 0.942528 0.141632
vt 0.836468 0.141632
vt 0.942528 0.165590
vt 0.836467 0.165590
vt 0.720047 0.213501
vt 0.720046 0.189515
vt 0.720047 0.237437
vt 0.720047 0.261353
vt 0.720046 0.285236
vt 0.720046 0.309076
vt 0.720046 0.325911
vt 0.720047 0.021979
vt 0.720046 0.004153
vt 0.720047 0.045880
vt 0.720047 0.069797
vt 0.720047 0.093731
vt 0.720046 0.117677
vt 0.720046 0.141632
vt 0.720046 0.165590
vt 0.593715 0.213501
vt 0.593715 0.189514
vt 0.593715 0.237437
vt 0.593715 0.261353
vt 0.593715 0.285236
vt 0.593715 0.309076
vt 0.593715 0.325911
vt 0.593715 0.021979
vt 0.593715 0.004153
vt 0.593715 0.045880
vt 0.593714 0.069797
vt 0.593715 0.093731
vt 0.593715 0.117676
vt 0.593715 0.141632
vt 0.593715 0.165590
vt 0.235045 0.015946
vt 0.343463 0.004047
vt 0.451869 0.015945
vt 0.538836 0.049282
vt 0.148091 0.049282
vt 0.587084 0.097456
vt 0.099844 0.097455
vt 0.587084 0.150923
vt 0.099844 0.150923
vt 0.538836 0.199096
vt 0.148085 0.199096
vt 0.451869 0.232432
vt 0.235046 0.232432
vt 0.343464 0.244331
vt 0.178223 0.443814
vt 0.373293 0.443715
vt 0.329932 0.460464
vt 0.275808 0.466481
vt 0.221659 0.460521
vt 0.424728 0.044197
vt 0.345155 0.035410
vt 0.342279 0.003995
vt 0.451260 0.015965
vt 0.265601 0.044233
vt 0.233308 0.015966
vt 0.201820 0.068914
vt 0.145905 0.049487
vt 0.166455 0.104560
vt 0.097420 0.097916
vt 0.166493 0.144114
vt 0.097420 0.151665
vt 0.201927 0.179744
vt 0.145903 0.200094
vt 0.265760 0.204396
vt 0.233306 0.233616
vt 0.345334 0.213184
vt 0.342279 0.245587
vt 0.424887 0.204360
vt 0.451262 0.233616
vt 0.488689 0.179679
vt 0.538662 0.200095
vt 0.524041 0.144032
vt 0.587139 0.151664
vt 0.524003 0.104479
vt 0.587138 0.097916
vt 0.488572 0.068849
vt 0.538653 0.049487
vt 0.960895 0.245445
vt 0.960896 0.285649
vt 0.990243 0.285685
vt 0.990243 0.245466
vt 0.960895 0.326789
vt 0.990243 0.326741
vt 0.960895 0.326789
vt 0.960895 0.286391
vt 0.990243 0.286332
vt 0.990243 0.326741
vt 0.960896 0.245917
vt 0.990243 0.245850
vt 0.960895 0.205385
vt 0.990243 0.205314
vt 0.960895 0.164815
vt 0.990243 0.164741
vt 0.960896 0.124225
vt 0.990243 0.124151
vt 0.960895 0.083635
vt 0.990243 0.083559
vt 0.960896 0.005522
vt 0.960895 0.045430
vt 0.990243 0.045406
vt 0.990243 0.005496
vt 0.960895 0.085351
vt 0.990243 0.085331
vt 0.960895 0.125297
vt 0.990243 0.125285
vt 0.960896 0.165284
vt 0.990243 0.165281
vt 0.960896 0.205327
vt 0.990243 0.205336
vt 0.347666 0.334182
vt 0.405248 0.356434
vt 0.373126 0.368655
vt 0.329686 0.351949
vt 0.437133 0.388474
vt 0.397247 0.392782
vt 0.437130 0.423996
vt 0.397306 0.419563
vt 0.405246 0.456035
vt 0.373293 0.443715
vt 0.347665 0.478287
vt 0.329932 0.460464
vt 0.275665 0.486297
vt 0.275808 0.466481
vt 0.203675 0.478286
vt 0.221659 0.460521
vt 0.145111 0.456971
vt 0.178223 0.443814
vt 0.114221 0.423996
vt 0.154104 0.419688
vt 0.114219 0.388474
vt 0.154045 0.392907
vt 0.146102 0.356435
vt 0.178057 0.368755
vt 0.203672 0.334183
vt 0.221413 0.352005
vt 0.275666 0.326173
vt 0.275526 0.345989
vt 0.178057 0.368755
vt 0.373126 0.368655
vt 0.397247 0.392782
vt 0.154045 0.392907
vt 0.397306 0.419563
vt 0.154104 0.419688
vt 0.329686 0.351949
vt 0.221413 0.352005
vt 0.275526 0.345989
vt 0.150748 0.257110
vt 0.165527 0.251015
vt 0.165527 0.251015
vt 0.198606 0.251052
vt 0.213545 0.256570
vt 0.198606 0.251052
vt 0.246623 0.256346
vt 0.213545 0.256570
vt 0.016579 0.272105
vt 0.016579 0.314796
vt 0.066298 0.314796
vt 0.066298 0.272105
vt 0.016579 0.325171
vt 0.066298 0.325171
vt 0.016579 0.335559
vt 0.066298 0.335559
vt 0.016579 0.346026
vt 0.066298 0.346026
vt 0.016579 0.393786
vt 0.066298 0.393786
vt 0.016579 0.112096
vt 0.016579 0.175179
vt 0.066298 0.175179
vt 0.066298 0.112096
vt 0.016579 0.175179
vt 0.016579 0.186234
vt 0.066298 0.186234
vt 0.066298 0.175179
vt 0.016579 0.197565
vt 0.066298 0.197565
vt 0.016579 0.207127
vt 0.066298 0.207127
vt 0.016579 0.218293
vt 0.066298 0.218293
vt 0.016579 0.228875
vt 0.066298 0.228875
vt 0.016579 0.272105
vt 0.066298 0.272105
vt 0.016579 0.443304
vt 0.066298 0.443304
vt 0.016579 0.452728
vt 0.066298 0.452728
vt 0.016579 0.463062
vt 0.066298 0.463062
vt 0.016579 0.472966
vt 0.066298 0.472966
vt 0.016579 0.028263
vt 0.016579 0.035374
vt 0.066298 0.035374
vt 0.066298 0.028263
vt 0.016579 0.045339
vt 0.066298 0.045339
vt 0.001482 0.272105
vt 0.081395 0.272105
vt 0.081395 0.314796
vt 0.001482 0.314796
vt 0.081395 0.325171
vt 0.001482 0.325171
vt 0.081395 0.335559
vt 0.001482 0.335559
vt 0.081395 0.346026
vt 0.001482 0.346026
vt 0.081395 0.393786
vt 0.001482 0.393786
vt 0.001482 0.112096
vt 0.081395 0.112096
vt 0.081395 0.175179
vt 0.001482 0.175179
vt 0.001482 0.175179
vt 0.081395 0.175179
vt 0.081395 0.186234
vt 0.001482 0.186234
vt 0.081395 0.197565
vt 0.001482 0.197565
vt 0.081395 0.207127
vt 0.001482 0.207127
vt 0.081395 0.218293
vt 0.001482 0.218293
vt 0.081395 0.228875
vt 0.001482 0.228875
vt 0.081395 0.272105
vt 0.001482 0.272105
vt 0.081395 0.443304
vt 0.001482 0.443304
vt 0.081395 0.452728
vt 0.001482 0.452728
vt 0.081395 0.463062
vt 0.001482 0.463062
vt 0.081395 0.472966
vt 0.001482 0.472966
vt 0.001482 0.028263
vt 0.081395 0.028263
vt 0.081395 0.035374
vt 0.001482 0.035374
vt 0.081395 0.045339
vt 0.001482 0.045339
vt 0.001482 0.272105
vt 0.001482 0.314796
vt 0.016579 0.314796
vt 0.016579 0.272105
vt 0.081395 0.314796
vt 0.081395 0.272105
vt 0.066298 0.272105
vt 0.066298 0.314796
vt 0.001482 0.325171
vt 0.016579 0.325171
vt 0.081395 0.325171
vt 0.066298 0.325171
vt 0.001482 0.335559
vt 0.016579 0.335559
vt 0.081395 0.335559
vt 0.066298 0.335559
vt 0.001482 0.346026
vt 0.016579 0.346026
vt 0.081395 0.346026
vt 0.066298 0.346026
vt 0.001482 0.393786
vt 0.016579 0.393786
vt 0.081395 0.393786
vt 0.066298 0.393786
vt 0.001482 0.112096
vt 0.001482 0.175179
vt 0.016579 0.175179
vt 0.016579 0.112096
vt 0.081395 0.175179
vt 0.081395 0.112096
vt 0.066298 0.112096
vt 0.066298 0.175179
vt 0.001482 0.175179
vt 0.001482 0.186234
vt 0.016579 0.186234
vt 0.016579 0.175179
vt 0.081395 0.186234
vt 0.081395 0.175179
vt 0.066298 0.175179
vt 0.066298 0.186234
vt 0.001482 0.197565
vt 0.016579 0.197565
vt 0.081395 0.197565
vt 0.066298 0.197565
vt 0.001482 0.207127
vt 0.016579 0.207127
vt 0.081395 0.207127
vt 0.066298 0.207127
vt 0.001482 0.218293
vt 0.016579 0.218293
vt 0.081395 0.218293
vt 0.066298 0.218293
vt 0.001482 0.228875
vt 0.016579 0.228875
vt 0.081395 0.228875
vt 0.066298 0.228875
vt 0.001482 0.272105
vt 0.016579 0.272105
vt 0.081395 0.272105
vt 0.066298 0.272105
vt 0.001482 0.443304
vt 0.016579 0.443304
vt 0.081395 0.443304
vt 0.066298 0.443304
vt 0.001482 0.452728
vt 0.016579 0.452728
vt 0.081395 0.452728
vt 0.066298 0.452728
vt 0.001482 0.463062
vt 0.016579 0.463062
vt 0.081395 0.463062
vt 0.066298 0.463062
vt 0.001482 0.472966
vt 0.016579 0.472966
vt 0.081395 0.472966
vt 0.066298 0.472966
vt 0.001482 0.028263
vt 0.001482 0.035374
vt 0.016579 0.035374
vt 0.016579 0.028263
vt 0.081395 0.035374
vt 0.081395 0.028263
vt 0.066298 0.028263
vt 0.066298 0.035374
vt 0.001482 0.045339
vt 0.016579 0.045339
vt 0.081395 0.045339
vt 0.066298 0.045339

usemtl phong141_0
f 8/1 1/2 3/3
f 3/3 2/4 8/1
f 2/5 3/6 5/7
f 5/7 4/8 2/5
f 4/9 5/10 6/11
f 6/11 7/12 4/9
f 7/13 6/14 1/15
f 1/15 8/16 7/13
f 1/17 6/18 5/19
f 5/19 3/20 1/17
f 7/21 8/22 2/23
f 2/23 4/24 7/21
f 14/25 13/26 9/27
f 9/27 10/28 14/25
f 10/29 9/30 15/31
f 15/31 11/32 10/29
f 11/33 15/34 12/35
f 12/35 16/36 11/33
f 16/37 12/38 13/39
f 13/39 14/40 16/37
f 13/41 12/42 15/43
f 15/43 9/44 13/41
f 16/45 14/46 10/47
f 10/47 11/48 16/45
f 17/49 22/50 18/51
f 18/51 19/52 17/49
f 19/53 18/54 23/55
f 23/55 20/56 19/53
f 20/57 23/58 21/59
f 21/59 24/60 20/57
f 24/61 21/62 22/63
f 22/63 17/64 24/61
f 22/65 21/66 23/67
f 23/67 18/68 22/65
f 24/69 17/70 19/71
f 19/71 20/72 24/69
f 29/73 28/74 25/75
f 25/75 32/76 29/73
f 32/77 25/78 30/79
f 30/79 26/80 32/77
f 26/81 30/82 27/83
f 27/83 31/84 26/81
f 31/85 27/86 28/87
f 28/87 29/88 31/85
f 28/89 27/90 30/91
f 30/91 25/92 28/89
f 31/93 29/94 32/95
f 32/95 26/96 31/93
f 40/97 36/98 38/99
f 38/99 33/100 40/97
f 33/101 38/102 34/103
f 34/103 35/104 33/101
f 35/105 34/106 37/107
f 37/107 39/108 35/105
f 39/109 37/110 36/111
f 36/111 40/112 39/109
f 36/113 37/114 34/115
f 34/115 38/116 36/113
f 39/117 40/118 33/119
f 33/119 35/120 39/117
f 46/121 47/122 41/123
f 41/123 42/124 46/121
f 42/125 41/126 43/127
f 43/127 44/128 42/125
f 44/129 43/130 45/131
f 45/131 48/132 44/129
f 48/133 45/134 47/135
f 47/135 46/136 48/133
f 47/137 45/138 43/139
f 43/139 41/140 47/137
f 48/141 46/142 42/143
f 42/143 44/144 48/141
f 53/145 49/146 50/147
f 50/147 56/148 53/145
f 56/149 50/150 55/151
f 55/151 51/152 56/149
f 51/153 55/154 54/155
f 54/155 52/156 51/153
f 52/157 54/158 49/159
f 49/159 53/160 52/157
f 49/161 54/162 55/163
f 55/163 50/164 49/161
f 52/165 53/166 56/167
f 56/167 51/168 52/165
f 57/169 63/170 58/171
f 58/171 59/172 57/169
f 59/173 58/174 61/175
f 61/175 60/176 59/173
f 60/177 61/178 62/179
f 62/179 64/180 60/177
f 64/181 62/182 63/183
f 63/183 57/184 64/181
f 63/185 62/186 61/187
f 61/187 58/188 63/185
f 64/189 57/190 59/191
f 59/191 60/192 64/189
f 72/193 71/194 70/195
f 70/195 69/196 72/193
f 71/197 65/198 66/199
f 66/199 70/200 71/197
f 65/201 68/202 67/203
f 67/203 66/204 65/201
f 68/205 72/206 69/207
f 69/207 67/208 68/205
f 69/209 70/210 66/211
f 66/211 67/212 69/209
f 68/213 65/214 71/215
f 71/215 72/216 68/213
f 73/217 76/218 78/219
f 78/219 80/220 73/217
f 80/221 78/222 75/223
f 75/223 74/224 80/221
f 74/225 75/226 77/227
f 77/227 79/228 74/225
f 79/229 77/230 76/231
f 76/231 73/232 79/229
f 76/233 77/234 75/235
f 75/235 78/236 76/233
f 79/237 73/238 80/239
f 80/239 74/240 79/237
f 87/241 81/242 82/243
f 82/243 88/244 87/241
f 88/245 82/246 86/247
f 86/247 83/248 88/245
f 83/249 86/250 85/251
f 85/251 84/252 83/249
f 84/253 85/254 81/255
f 81/255 87/256 84/253
f 81/257 85/258 86/259
f 86/259 82/260 81/257
f 84/261 87/262 88/263
f 88/263 83/264 84/261
f 95/265 89/266 90/267
f 90/267 91/268 95/265
f 91/269 90/270 94/271
f 94/271 96/272 91/269
f 96/273 94/274 92/275
f 92/275 93/276 96/273
f 93/277 92/278 89/279
f 89/279 95/280 93/277
f 89/281 92/282 94/283
f 94/283 90/284 89/281
f 93/285 95/286 91/287
f 91/287 96/288 93/285
f 97/289 101/290 102/291
f 102/291 98/292 97/289
f 98/293 102/294 99/295
f 99/295 104/296 98/293
f 104/297 99/298 100/299
f 100/299 103/300 104/297
f 103/301 100/302 101/303
f 101/303 97/304 103/301
f 101/305 100/306 99/307
f 99/307 102/308 101/305
f 103/309 97/310 98/311
f 98/311 104/312 103/309
f 105/313 106/314 108/315
f 108/315 107/316 105/313
f 107/317 108/318 110/319
f 110/319 109/320 107/317
f 109/321 110/322 111/323
f 111/323 112/324 109/321
f 112/325 111/326 106/327
f 106/327 105/328 112/325
f 106/329 111/330 110/331
f 110/331 108/332 106/329
f 112/333 105/334 107/335
f 107/335 109/336 112/333
f 113/337 115/338 114/339
f 114/339 118/340 113/337
f 115/341 120/342 116/343
f 116/343 114/344 115/341
f 120/345 117/346 119/347
f 119/347 116/348 120/345
f 117/349 113/350 118/351
f 118/351 119/352 117/349
f 118/353 114/354 116/355
f 116/355 119/356 118/353
f 117/357 120/358 115/359
f 115/359 113/360 117/357
f 124/361 125/362 121/363
f 121/363 127/364 124/361
f 127/365 121/366 122/367
f 122/367 128/368 127/365
f 128/369 122/370 123/371
f 123/371 126/372 128/369
f 126/373 123/374 125/375
f 125/375 124/376 126/373
f 125/377 123/378 122/379
f 122/379 121/380 125/377
f 126/381 124/382 127/383
f 127/383 128/384 126/381
f 134/385 135/386 129/387
f 129/387 130/388 134/385
f 130/389 129/390 136/391
f 136/391 131/392 130/389
f 131/393 136/394 132/395
f 132/395 133/396 131/393
f 133/397 132/398 135/399
f 135/399 134/400 133/397
f 135/401 132/402 136/403
f 136/403 129/404 135/401
f 133/405 134/406 130/407
f 130/407 131/408 133/405
f 142/409 137/410 138/411
f 138/411 144/412 142/409
f 144/413 138/414 139/415
f 139/415 140/416 144/413
f 140/417 139/418 143/419
f 143/419 141/420 140/417
f 141/421 143/422 137/423
f 137/423 142/424 141/421
f 137/425 143/426 139/427
f 139/427 138/428 137/425
f 141/429 142/430 144/431
f 144/431 140/432 141/429
f 145/433 150/434 147/435
f 147/435 146/436 145/433
f 146/437 147/438 151/439
f 151/439 152/440 146/437
f 152/441 151/442 148/443
f 148/443 149/444 152/441
f 149/445 148/446 150/447
f 150/447 145/448 149/445
f 150/449 148/450 151/451
f 151/451 147/452 150/449
f 149/453 145/454 146/455
f 146/455 152/456 149/453
f 158/457 160/458 153/459
f 153/459 159/460 158/457
f 153/461 160/462 154/463
f 154/463 155/464 153/461
f 154/465 157/466 156/467
f 156/467 155/468 154/465
f 156/469 157/470 158/471
f 158/471 159/472 156/469
f 156/473 159/474 153/475
f 153/475 155/476 156/473
f 157/477 154/478 160/479
f 160/479 158/480 157/477
f 164/481 163/482 161/483
f 161/483 165/484 164/481
f 165/485 161/486 162/487
f 162/487 167/488 165/485
f 306/489 304/490 168/491
f 168/491 170/492 306/489
f 171/493 176/494 161/495
f 161/495 163/496 171/493
f 166/497 172/498 164/499
f 164/499 165/500 166/497
f 176/501 175/502 162/503
f 162/503 161/504 176/501
f 174/505 166/506 165/507
f 165/507 167/508 174/505
f 307/509 173/510 168/511
f 168/511 304/512 307/509
f 169/513 305/514 306/515
f 306/515 170/516 169/513
f 176/517 171/518 172/519
f 172/519 166/520 176/517
f 173/521 307/522 305/523
f 305/523 169/524 173/521
f 174/525 175/526 176/527
f 176/527 166/528 174/525
f 177/529 178/530 179/531
f 179/531 180/532 177/529
f 180/532 179/531 181/533
f 181/533 182/534 180/532
f 182/534 181/533 183/535
f 183/535 184/536 182/534
f 184/537 183/538 185/539
f 185/539 186/540 184/537
f 186/540 185/539 187/541
f 187/541 188/542 186/540
f 188/542 187/541 189/543
f 189/543 190/544 188/542
f 190/544 189/543 178/530
f 178/530 177/529 190/544
f 191/545 197/546 177/529
f 177/529 180/532 191/545
f 192/547 191/545 180/532
f 180/532 182/534 192/547
f 193/548 192/547 182/534
f 182/534 184/536 193/548
f 194/549 193/550 184/537
f 184/537 186/540 194/549
f 195/551 194/549 186/540
f 186/540 188/542 195/551
f 196/552 195/551 188/542
f 188/542 190/544 196/552
f 197/546 196/552 190/544
f 190/544 177/529 197/546
f 197/553 191/554 192/555
f 192/555 193/556 197/553
f 197/553 193/556 196/557
f 193/556 194/558 196/557
f 196/557 194/558 195/559
f 198/560 205/561 199/562
f 199/562 200/563 198/560
f 200/564 199/565 202/566
f 202/566 201/567 200/564
f 201/568 202/569 203/570
f 203/570 204/571 201/568
f 204/572 203/573 205/574
f 205/574 198/575 204/572
f 205/576 203/577 202/578
f 202/578 199/579 205/576
f 204/580 198/581 200/582
f 200/582 201/583 204/580
f 206/584 260/585 207/586
f 207/586 208/587 206/584
f 260/585 259/588 209/589
f 209/589 207/586 260/585
f 259/588 210/590 211/591
f 211/591 209/589 259/588
f 210/590 212/592 213/593
f 213/593 211/591 210/590
f 212/592 258/594 214/595
f 214/595 213/593 212/592
f 258/594 215/596 218/597
f 218/597 214/595 258/594
f 215/598 216/599 217/600
f 217/600 218/601 215/598
f 216/599 255/602 219/603
f 219/603 217/600 216/599
f 255/602 220/604 221/605
f 221/605 219/603 255/602
f 220/604 222/606 223/607
f 223/607 221/605 220/604
f 222/606 224/608 225/609
f 225/609 223/607 222/606
f 224/608 226/610 227/611
f 227/611 225/609 224/608
f 226/610 251/612 228/613
f 228/613 227/611 226/610
f 251/612 206/584 208/587
f 208/587 228/613 251/612
f 208/587 207/586 229/614
f 229/614 230/615 208/587
f 207/586 209/589 231/616
f 231/616 229/614 207/586
f 209/589 211/591 232/617
f 232/617 231/616 209/589
f 211/591 213/593 233/618
f 233/618 232/617 211/591
f 213/593 214/595 234/619
f 234/619 233/618 213/593
f 214/595 218/597 236/620
f 236/620 234/619 214/595
f 218/601 217/600 235/621
f 235/621 236/622 218/601
f 217/600 219/603 237/623
f 237/623 235/621 217/600
f 219/603 221/605 238/624
f 238/624 237/623 219/603
f 221/605 223/607 239/625
f 239/625 238/624 221/605
f 223/607 225/609 240/626
f 240/626 239/625 223/607
f 225/609 227/611 241/627
f 241/627 240/626 225/609
f 227/611 228/613 242/628
f 242/628 241/627 227/611
f 228/613 208/587 230/615
f 230/615 242/628 228/613
f 230/615 229/614 283/629
f 283/629 282/630 230/615
f 229/614 231/616 284/631
f 284/631 283/629 229/614
f 231/616 232/617 285/632
f 285/632 284/631 231/616
f 232/617 233/618 286/633
f 286/633 285/632 232/617
f 233/618 234/619 243/634
f 243/634 286/633 233/618
f 234/619 236/620 288/635
f 288/635 243/634 234/619
f 236/622 235/621 289/636
f 289/636 288/637 236/622
f 235/621 237/623 244/638
f 244/638 289/636 235/621
f 237/623 238/624 292/639
f 292/639 244/638 237/623
f 238/624 239/625 294/640
f 294/640 292/639 238/624
f 239/625 240/626 245/641
f 245/641 294/640 239/625
f 240/626 241/627 246/642
f 246/642 245/641 240/626
f 241/627 242/628 297/643
f 297/643 246/642 241/627
f 242/628 230/615 282/630
f 282/630 297/643 242/628
f 265/644 264/645 268/646
f 268/646 267/647 265/644
f 265/644 267/647 281/648
f 267/647 269/649 281/648
f 281/648 269/649 247/650
f 269/649 270/651 247/650
f 247/650 270/651 279/652
f 270/651 271/653 279/652
f 279/652 271/653 248/654
f 271/653 273/655 248/654
f 248/654 273/655 276/656
f 273/655 274/657 276/656
f 291/658 249/659 287/660
f 287/660 250/661 291/658
f 291/658 250/661 290/662
f 206/663 251/664 263/665
f 263/665 262/666 206/663
f 251/664 226/667 266/668
f 266/668 263/665 251/664
f 226/667 224/669 252/670
f 252/670 266/668 226/667
f 224/669 222/671 253/672
f 253/672 252/670 224/669
f 222/671 220/673 254/674
f 254/674 253/672 222/671
f 220/673 255/675 256/676
f 256/676 254/674 220/673
f 255/675 216/677 272/678
f 272/678 256/676 255/675
f 216/677 215/679 257/680
f 257/680 272/678 216/677
f 215/679 258/681 275/682
f 275/682 257/680 215/679
f 258/681 212/683 277/684
f 277/684 275/682 258/681
f 212/683 210/685 278/686
f 278/686 277/684 212/683
f 210/685 259/687 280/688
f 280/688 278/686 210/685
f 259/687 260/689 261/690
f 261/690 280/688 259/687
f 260/689 206/663 262/666
f 262/666 261/690 260/689
f 262/691 263/692 264/693
f 264/693 265/694 262/691
f 263/692 266/695 268/696
f 268/696 264/693 263/692
f 266/697 252/698 267/699
f 267/699 268/700 266/697
f 252/698 253/701 269/702
f 269/702 267/699 252/698
f 253/701 254/703 270/704
f 270/704 269/702 253/701
f 254/703 256/705 271/706
f 271/706 270/704 254/703
f 256/705 272/707 273/708
f 273/708 271/706 256/705
f 272/707 257/709 274/710
f 274/710 273/708 272/707
f 257/711 275/712 276/713
f 276/713 274/714 257/711
f 275/712 277/715 248/716
f 248/716 276/713 275/712
f 277/715 278/717 279/718
f 279/718 248/716 277/715
f 278/717 280/719 247/720
f 247/720 279/718 278/717
f 280/719 261/721 281/722
f 281/722 247/720 280/719
f 261/721 262/691 265/694
f 265/694 281/722 261/721
f 282/723 283/724 299/725
f 299/725 302/726 282/723
f 283/724 284/727 300/728
f 300/728 299/725 283/724
f 284/727 285/729 301/730
f 301/730 300/728 284/727
f 285/729 286/731 249/732
f 249/732 301/730 285/729
f 286/731 243/733 287/734
f 287/734 249/732 286/731
f 243/733 288/735 250/736
f 250/736 287/734 243/733
f 288/735 289/737 290/738
f 290/738 250/736 288/735
f 289/737 244/739 291/740
f 291/740 290/738 289/737
f 244/739 292/741 293/742
f 293/742 291/740 244/739
f 292/741 294/743 295/744
f 295/744 293/742 292/741
f 294/743 245/745 296/746
f 296/746 295/744 294/743
f 245/745 246/747 303/748
f 303/748 296/746 245/745
f 246/747 297/749 298/750
f 298/750 303/748 246/747
f 297/749 282/723 302/726
f 302/726 298/750 297/749
f 296/751 299/752 300/753
f 300/753 295/754 296/751
f 295/754 300/753 301/755
f 301/755 293/756 295/754
f 302/757 299/752 296/751
f 296/751 303/758 302/757
f 302/757 303/758 298/759
f 293/756 301/755 249/659
f 249/659 291/658 293/756
f 175/502 307/760 304/761
f 304/761 162/503 175/502
f 167/488 162/487 304/762
f 304/762 306/763 167/488
f 305/764 174/505 167/508
f 167/508 306/765 305/764
f 307/766 175/526 174/525
f 174/525 305/767 307/766
f 313/768 311/769 310/770
f 310/770 316/771 313/768
f 316/772 310/773 315/774
f 315/774 317/775 316/772
f 450/776 448/777 308/778
f 308/778 309/779 450/776
f 320/780 319/781 310/782
f 310/782 311/783 320/780
f 312/784 321/785 313/786
f 313/786 316/787 312/784
f 319/788 314/789 315/790
f 315/790 310/791 319/788
f 324/792 312/793 316/794
f 316/794 317/795 324/792
f 323/796 322/797 308/798
f 308/798 448/799 323/796
f 318/800 449/801 450/802
f 450/802 309/803 318/800
f 319/804 320/805 321/806
f 321/806 312/807 319/804
f 322/808 323/809 449/810
f 449/810 318/811 322/808
f 324/812 314/813 319/814
f 319/814 312/815 324/812
f 325/816 326/817 327/818
f 327/818 328/819 325/816
f 328/819 327/818 329/820
f 329/820 330/821 328/819
f 330/821 329/820 332/822
f 332/822 331/823 330/821
f 331/824 332/825 333/826
f 333/826 334/827 331/824
f 334/827 333/826 335/828
f 335/828 336/829 334/827
f 336/829 335/828 337/830
f 337/830 338/831 336/829
f 338/831 337/830 326/817
f 326/817 325/816 338/831
f 339/832 343/833 325/816
f 325/816 328/819 339/832
f 340/834 339/832 328/819
f 328/819 330/821 340/834
f 341/835 340/834 330/821
f 330/821 331/823 341/835
f 345/836 341/837 331/824
f 331/824 334/827 345/836
f 342/838 345/836 334/827
f 334/827 336/829 342/838
f 344/839 342/838 336/829
f 336/829 338/831 344/839
f 343/833 344/839 338/831
f 338/831 325/816 343/833
f 343/840 339/841 340/842
f 340/842 341/843 343/840
f 343/840 341/843 344/844
f 341/843 345/845 344/844
f 344/844 345/845 342/846
f 352/847 351/848 347/849
f 347/849 346/850 352/847
f 346/851 347/852 348/853
f 348/853 353/854 346/851
f 353/855 348/856 349/857
f 349/857 350/858 353/855
f 350/859 349/860 351/861
f 351/861 352/862 350/859
f 351/863 349/864 348/865
f 348/865 347/866 351/863
f 350/867 352/868 346/869
f 346/869 353/870 350/867
f 403/871 417/872 354/873
f 354/873 355/874 403/871
f 417/872 356/875 357/876
f 357/876 354/873 417/872
f 356/875 414/877 358/878
f 358/878 357/876 356/875
f 414/877 359/879 360/880
f 360/880 358/878 414/877
f 359/879 411/881 361/882
f 361/882 360/880 359/879
f 411/881 409/883 362/884
f 362/884 361/882 411/881
f 409/885 363/886 364/887
f 364/887 362/888 409/885
f 363/886 365/889 366/890
f 366/890 364/887 363/886
f 365/889 367/891 368/892
f 368/892 366/890 365/889
f 367/891 369/893 370/894
f 370/894 368/892 367/891
f 369/893 371/895 372/896
f 372/896 370/894 369/893
f 371/895 406/897 373/898
f 373/898 372/896 371/895
f 406/897 404/899 374/900
f 374/900 373/898 406/897
f 404/899 403/871 355/874
f 355/874 374/900 404/899
f 355/874 354/873 375/901
f 375/901 376/902 355/874
f 354/873 357/876 377/903
f 377/903 375/901 354/873
f 357/876 358/878 378/904
f 378/904 377/903 357/876
f 358/878 360/880 619/905
f 619/905 378/904 358/878
f 360/880 361/882 621/906
f 621/906 619/905 360/880
f 361/882 362/884 623/907
f 623/907 621/906 361/882
f 362/888 364/887 642/908
f 642/908 623/909 362/888
f 364/887 366/890 379/910
f 379/910 642/908 364/887
f 366/890 368/892 380/911
f 380/911 379/910 366/890
f 368/892 370/894 381/912
f 381/912 380/911 368/892
f 370/894 372/896 382/913
f 382/913 381/912 370/894
f 372/896 373/898 383/914
f 383/914 382/913 372/896
f 373/898 374/900 384/915
f 384/915 383/914 373/898
f 374/900 355/874 376/902
f 376/902 384/915 374/900
f 376/902 375/901 385/916
f 385/916 386/917 376/902
f 375/901 377/903 387/918
f 387/918 385/916 375/901
f 377/903 378/904 388/919
f 388/919 387/918 377/903
f 378/904 619/905 389/920
f 389/920 388/919 378/904
f 619/905 621/906 390/921
f 390/921 389/920 619/905
f 621/906 623/907 437/922
f 437/922 390/921 621/906
f 623/909 642/908 391/923
f 391/923 437/924 623/909
f 642/908 379/910 392/925
f 392/925 391/923 642/908
f 379/910 380/911 441/926
f 441/926 392/925 379/910
f 380/911 381/912 393/927
f 393/927 441/926 380/911
f 381/912 382/913 394/928
f 394/928 393/927 381/912
f 382/913 383/914 395/929
f 395/929 394/928 382/913
f 383/914 384/915 445/930
f 445/930 395/929 383/914
f 384/915 376/902 386/917
f 386/917 445/930 384/915
f 396/931 420/932 397/933
f 397/933 398/934 396/931
f 396/931 398/934 431/935
f 398/934 399/936 431/935
f 431/935 399/936 430/937
f 399/936 423/938 430/937
f 430/937 423/938 400/939
f 423/938 425/940 400/939
f 400/939 425/940 429/941
f 425/940 427/942 429/941
f 429/941 427/942 401/943
f 427/942 428/944 401/943
f 440/945 402/946 436/947
f 436/947 438/948 440/945
f 440/945 438/948 439/949
f 403/950 404/951 419/952
f 419/952 405/953 403/950
f 404/951 406/954 421/955
f 421/955 419/952 404/951
f 406/954 371/956 407/957
f 407/957 421/955 406/954
f 371/956 369/958 422/959
f 422/959 407/957 371/956
f 369/958 367/960 408/961
f 408/961 422/959 369/958
f 367/960 365/962 424/963
f 424/963 408/961 367/960
f 365/962 363/964 426/965
f 426/965 424/963 365/962
f 363/964 409/966 410/967
f 410/967 426/965 363/964
f 409/966 411/968 412/969
f 412/969 410/967 409/966
f 411/968 359/970 413/971
f 413/971 412/969 411/968
f 359/970 414/972 415/973
f 415/973 413/971 359/970
f 414/972 356/974 416/975
f 416/975 415/973 414/972
f 356/974 417/976 418/977
f 418/977 416/975 356/974
f 417/976 403/950 405/953
f 405/953 418/977 417/976
f 405/978 419/979 420/980
f 420/980 396/981 405/978
f 419/979 421/982 397/983
f 397/983 420/980 419/979
f 421/984 407/985 398/986
f 398/986 397/987 421/984
f 407/985 422/988 399/989
f 399/989 398/986 407/985
f 422/988 408/990 423/991
f 423/991 399/989 422/988
f 408/990 424/992 425/993
f 425/993 423/991 408/990
f 424/992 426/994 427/995
f 427/995 425/993 424/992
f 426/994 410/996 428/997
f 428/997 427/995 426/994
f 410/998 412/999 401/1000
f 401/1000 428/1001 410/998
f 412/999 413/1002 429/1003
f 429/1003 401/1000 412/999
f 413/1002 415/1004 400/1005
f 400/1005 429/1003 413/1002
f 415/1004 416/1006 430/1007
f 430/1007 400/1005 415/1004
f 416/1006 418/1008 431/1009
f 431/1009 430/1007 416/1006
f 418/1008 405/978 396/981
f 396/981 431/1009 418/1008
f 386/1010 385/1011 432/1012
f 432/1012 433/1013 386/1010
f 385/1011 387/1014 434/1015
f 434/1015 432/1012 385/1011
f 387/1014 388/1016 435/1017
f 435/1017 434/1015 387/1014
f 388/1016 389/1018 402/1019
f 402/1019 435/1017 388/1016
f 389/1018 390/1020 436/1021
f 436/1021 402/1019 389/1018
f 390/1020 437/1022 438/1023
f 438/1023 436/1021 390/1020
f 437/1022 391/1024 439/1025
f 439/1025 438/1023 437/1022
f 391/1024 392/1026 440/1027
f 440/1027 439/1025 391/1024
f 392/1026 441/1028 442/1029
f 442/1029 440/1027 392/1026
f 441/1028 393/1030 447/1031
f 447/1031 442/1029 441/1028
f 393/1030 394/1032 443/1033
f 443/1033 447/1031 393/1030
f 394/1032 395/1034 444/1035
f 444/1035 443/1033 394/1032
f 395/1034 445/1036 446/1037
f 446/1037 444/1035 395/1034
f 445/1036 386/1010 433/1013
f 433/1013 446/1037 445/1036
f 443/1038 432/1039 434/1040
f 434/1040 447/1041 443/1038
f 447/1041 434/1040 435/1042
f 435/1042 442/1043 447/1041
f 433/1044 432/1039 443/1038
f 443/1038 444/1045 433/1044
f 433/1044 444/1045 446/1046
f 442/1043 435/1042 402/946
f 402/946 440/945 442/1043
f 314/789 323/1047 448/1048
f 448/1048 315/790 314/789
f 317/775 315/774 448/1049
f 448/1049 450/1050 317/775
f 449/1051 324/792 317/795
f 317/795 450/1052 449/1051
f 323/1053 314/813 324/812
f 324/812 449/1054 323/1053
f 451/1055 455/1056 452/1057
f 452/1057 457/1058 451/1055
f 457/1059 452/1060 453/1061
f 453/1061 458/1062 457/1059
f 595/1063 594/1064 460/1065
f 460/1065 462/1066 595/1063
f 454/1067 463/1068 452/1069
f 452/1069 455/1070 454/1067
f 456/1071 464/1072 451/1073
f 451/1073 457/1074 456/1071
f 463/1075 468/1076 453/1077
f 453/1077 452/1078 463/1075
f 467/1079 456/1080 457/1081
f 457/1081 458/1082 467/1079
f 459/1083 465/1084 460/1085
f 460/1085 594/1086 459/1083
f 466/1087 461/1088 595/1089
f 595/1089 462/1090 466/1087
f 463/1091 454/1092 464/1093
f 464/1093 456/1094 463/1091
f 465/1095 459/1096 461/1097
f 461/1097 466/1098 465/1095
f 467/1099 468/1100 463/1101
f 463/1101 456/1102 467/1099
f 469/1103 470/1104 471/1105
f 471/1105 472/1106 469/1103
f 472/1106 471/1105 473/1107
f 473/1107 474/1108 472/1106
f 474/1108 473/1107 476/1109
f 476/1109 475/1110 474/1108
f 475/1111 476/1112 477/1113
f 477/1113 478/1114 475/1111
f 478/1114 477/1113 479/1115
f 479/1115 480/1116 478/1114
f 480/1116 479/1115 481/1117
f 481/1117 482/1118 480/1116
f 482/1118 481/1117 470/1104
f 470/1104 469/1103 482/1118
f 483/1119 484/1120 469/1103
f 469/1103 472/1106 483/1119
f 487/1121 483/1119 472/1106
f 472/1106 474/1108 487/1121
f 488/1122 487/1121 474/1108
f 474/1108 475/1110 488/1122
f 485/1123 488/1124 475/1111
f 475/1111 478/1114 485/1123
f 486/1125 485/1123 478/1114
f 478/1114 480/1116 486/1125
f 489/1126 486/1125 480/1116
f 480/1116 482/1118 489/1126
f 484/1120 489/1126 482/1118
f 482/1118 469/1103 484/1120
f 484/1127 483/1128 487/1129
f 487/1129 488/1130 484/1127
f 484/1127 488/1130 489/1131
f 488/1130 485/1132 489/1131
f 489/1131 485/1132 486/1133
f 490/1134 491/1135 492/1136
f 492/1136 497/1137 490/1134
f 497/1138 492/1139 494/1140
f 494/1140 493/1141 497/1138
f 493/1142 494/1143 496/1144
f 496/1144 495/1145 493/1142
f 495/1146 496/1147 491/1148
f 491/1148 490/1149 495/1146
f 491/1150 496/1151 494/1152
f 494/1152 492/1153 491/1150
f 495/1154 490/1155 497/1156
f 497/1156 493/1157 495/1154
f 541/1158 553/1159 498/1160
f 498/1160 499/1161 541/1158
f 553/1159 552/1162 500/1163
f 500/1163 498/1160 553/1159
f 552/1162 550/1164 501/1165
f 501/1165 500/1163 552/1162
f 550/1164 502/1166 503/1167
f 503/1167 501/1165 550/1164
f 502/1166 504/1168 505/1169
f 505/1169 503/1167 502/1166
f 504/1168 549/1170 506/1171
f 506/1171 505/1169 504/1168
f 549/1172 548/1173 507/1174
f 507/1174 506/1175 549/1172
f 548/1173 508/1176 509/1177
f 509/1177 507/1174 548/1173
f 508/1176 510/1178 511/1179
f 511/1179 509/1177 508/1176
f 510/1178 512/1180 513/1181
f 513/1181 511/1179 510/1178
f 512/1180 545/1182 514/1183
f 514/1183 513/1181 512/1180
f 545/1182 544/1184 515/1185
f 515/1185 514/1183 545/1182
f 544/1184 542/1186 516/1187
f 516/1187 515/1185 544/1184
f 542/1186 541/1158 499/1161
f 499/1161 516/1187 542/1186
f 499/1161 498/1160 517/1188
f 517/1188 518/1189 499/1161
f 498/1160 500/1163 519/1190
f 519/1190 517/1188 498/1160
f 500/1163 501/1165 520/1191
f 520/1191 519/1190 500/1163
f 501/1165 503/1167 521/1192
f 521/1192 520/1191 501/1165
f 503/1167 505/1169 522/1193
f 522/1193 521/1192 503/1167
f 505/1169 506/1171 524/1194
f 524/1194 522/1193 505/1169
f 506/1175 507/1174 523/1195
f 523/1195 524/1196 506/1175
f 507/1174 509/1177 626/1197
f 626/1197 523/1195 507/1174
f 509/1177 511/1179 525/1198
f 525/1198 626/1197 509/1177
f 511/1179 513/1181 526/1199
f 526/1199 525/1198 511/1179
f 513/1181 514/1183 655/1200
f 655/1200 526/1199 513/1181
f 514/1183 515/1185 527/1201
f 527/1201 655/1200 514/1183
f 515/1185 516/1187 528/1202
f 528/1202 527/1201 515/1185
f 516/1187 499/1161 518/1189
f 518/1189 528/1202 516/1187
f 518/1189 517/1188 574/1203
f 574/1203 573/1204 518/1189
f 517/1188 519/1190 577/1205
f 577/1205 574/1203 517/1188
f 519/1190 520/1191 529/1206
f 529/1206 577/1205 519/1190
f 520/1191 521/1192 578/1207
f 578/1207 529/1206 520/1191
f 521/1192 522/1193 579/1208
f 579/1208 578/1207 521/1192
f 522/1193 524/1194 530/1209
f 530/1209 579/1208 522/1193
f 524/1196 523/1195 531/1210
f 531/1210 530/1211 524/1196
f 523/1195 626/1197 532/1212
f 532/1212 531/1210 523/1195
f 626/1197 525/1198 583/1213
f 583/1213 532/1212 626/1197
f 525/1198 526/1199 585/1214
f 585/1214 583/1213 525/1198
f 526/1199 655/1200 587/1215
f 587/1215 585/1214 526/1199
f 655/1200 527/1201 533/1216
f 533/1216 587/1215 655/1200
f 527/1201 528/1202 588/1217
f 588/1217 533/1216 527/1201
f 528/1202 518/1189 573/1204
f 573/1204 588/1217 528/1202
f 557/1218 556/1219 559/1220
f 559/1220 534/1221 557/1218
f 557/1218 534/1221 535/1222
f 534/1221 536/1223 535/1222
f 535/1222 536/1223 537/1224
f 536/1223 538/1225 537/1224
f 537/1224 538/1225 571/1226
f 538/1225 562/1227 571/1226
f 571/1226 562/1227 570/1228
f 562/1227 564/1229 570/1228
f 570/1228 564/1229 568/1230
f 564/1229 565/1231 568/1230
f 582/1232 539/1233 540/1234
f 540/1234 580/1235 582/1232
f 582/1232 580/1235 581/1236
f 541/1237 542/1238 543/1239
f 543/1239 555/1240 541/1237
f 542/1238 544/1241 558/1242
f 558/1242 543/1239 542/1238
f 544/1241 545/1243 546/1244
f 546/1244 558/1242 544/1241
f 545/1243 512/1245 560/1246
f 560/1246 546/1244 545/1243
f 512/1245 510/1247 547/1248
f 547/1248 560/1246 512/1245
f 510/1247 508/1249 561/1250
f 561/1250 547/1248 510/1247
f 508/1249 548/1251 563/1252
f 563/1252 561/1250 508/1249
f 548/1251 549/1253 566/1254
f 566/1254 563/1252 548/1251
f 549/1253 504/1255 567/1256
f 567/1256 566/1254 549/1253
f 504/1255 502/1257 569/1258
f 569/1258 567/1256 504/1255
f 502/1257 550/1259 551/1260
f 551/1260 569/1258 502/1257
f 550/1259 552/1261 572/1262
f 572/1262 551/1260 550/1259
f 552/1261 553/1263 554/1264
f 554/1264 572/1262 552/1261
f 553/1263 541/1237 555/1240
f 555/1240 554/1264 553/1263
f 555/1265 543/1266 556/1267
f 556/1267 557/1268 555/1265
f 543/1266 558/1269 559/1270
f 559/1270 556/1267 543/1266
f 558/1271 546/1272 534/1273
f 534/1273 559/1274 558/1271
f 546/1272 560/1275 536/1276
f 536/1276 534/1273 546/1272
f 560/1275 547/1277 538/1278
f 538/1278 536/1276 560/1275
f 547/1277 561/1279 562/1280
f 562/1280 538/1278 547/1277
f 561/1279 563/1281 564/1282
f 564/1282 562/1280 561/1279
f 563/1281 566/1283 565/1284
f 565/1284 564/1282 563/1281
f 566/1285 567/1286 568/1287
f 568/1287 565/1288 566/1285
f 567/1286 569/1289 570/1290
f 570/1290 568/1287 567/1286
f 569/1289 551/1291 571/1292
f 571/1292 570/1290 569/1289
f 551/1291 572/1293 537/1294
f 537/1294 571/1292 551/1291
f 572/1293 554/1295 535/1296
f 535/1296 537/1294 572/1293
f 554/1295 555/1265 557/1268
f 557/1268 535/1296 554/1295
f 573/1297 574/1298 575/1299
f 575/1299 576/1300 573/1297
f 574/1298 577/1301 591/1302
f 591/1302 575/1299 574/1298
f 577/1301 529/1303 592/1304
f 592/1304 591/1302 577/1301
f 529/1303 578/1305 539/1306
f 539/1306 592/1304 529/1303
f 578/1305 579/1307 540/1308
f 540/1308 539/1306 578/1305
f 579/1307 530/1309 580/1310
f 580/1310 540/1308 579/1307
f 530/1309 531/1311 581/1312
f 581/1312 580/1310 530/1309
f 531/1311 532/1313 582/1314
f 582/1314 581/1312 531/1311
f 532/1313 583/1315 584/1316
f 584/1316 582/1314 532/1313
f 583/1315 585/1317 586/1318
f 586/1318 584/1316 583/1315
f 585/1317 587/1319 590/1320
f 590/1320 586/1318 585/1317
f 587/1319 533/1321 593/1322
f 593/1322 590/1320 587/1319
f 533/1321 588/1323 589/1324
f 589/1324 593/1322 533/1321
f 588/1323 573/1297 576/1300
f 576/1300 589/1324 588/1323
f 590/1325 575/1326 591/1327
f 591/1327 586/1328 590/1325
f 586/1328 591/1327 592/1329
f 592/1329 584/1330 586/1328
f 576/1331 575/1326 590/1325
f 590/1325 593/1332 576/1331
f 576/1331 593/1332 589/1333
f 584/1330 592/1329 539/1233
f 539/1233 582/1232 584/1330
f 468/1076 459/1334 594/1335
f 594/1335 453/1077 468/1076
f 458/1062 453/1061 594/1336
f 594/1336 595/1337 458/1062
f 461/1338 467/1079 458/1082
f 458/1082 595/1339 461/1338
f 459/1340 468/1100 467/1099
f 467/1099 461/1341 459/1340
f 610/1342 636/1343 638/1344
f 638/1344 596/1345 610/1342
f 636/1343 639/1346 640/1347
f 640/1347 638/1344 636/1343
f 639/1346 597/1348 641/1349
f 641/1349 640/1347 639/1346
f 597/1348 598/1350 599/1351
f 599/1351 641/1349 597/1348
f 598/1350 600/1352 601/1353
f 601/1353 599/1351 598/1350
f 602/1354 645/1355 647/1356
f 647/1356 603/1357 602/1354
f 645/1358 648/1359 651/1360
f 651/1360 647/1361 645/1358
f 648/1359 604/1362 605/1363
f 605/1363 651/1360 648/1359
f 604/1362 653/1364 606/1365
f 606/1365 605/1363 604/1362
f 653/1364 607/1366 608/1367
f 608/1367 606/1365 653/1364
f 607/1366 656/1368 609/1369
f 609/1369 608/1367 607/1366
f 656/1368 610/1370 596/1371
f 596/1371 609/1369 656/1368
f 600/1352 611/1372 612/1373
f 612/1373 601/1353 600/1352
f 611/1372 659/1374 661/1375
f 661/1375 612/1373 611/1372
f 659/1374 613/1376 614/1377
f 614/1377 661/1375 659/1374
f 613/1376 615/1378 665/1379
f 665/1379 614/1377 613/1376
f 615/1380 616/1381 666/1382
f 666/1382 665/1383 615/1380
f 616/1381 617/1384 667/1385
f 667/1385 666/1382 616/1381
f 617/1384 602/1354 603/1357
f 603/1357 667/1385 617/1384
f 618/1386 628/1387 637/1388
f 637/1388 619/1389 618/1386
f 619/1389 637/1388 620/1390
f 620/1390 621/1391 619/1389
f 621/1391 620/1390 622/1392
f 622/1392 623/1393 621/1391
f 623/1393 622/1392 624/1394
f 624/1394 642/1395 623/1393
f 642/1395 624/1394 643/1396
f 643/1396 625/1397 642/1395
f 644/1398 646/1399 650/1400
f 650/1400 523/1401 644/1398
f 523/1402 650/1403 649/1404
f 649/1404 626/1405 523/1402
f 626/1405 649/1404 652/1406
f 652/1406 525/1407 626/1405
f 525/1407 652/1406 654/1408
f 654/1408 526/1409 525/1407
f 526/1409 654/1408 627/1410
f 627/1410 655/1411 526/1409
f 655/1411 627/1410 657/1412
f 657/1412 527/1413 655/1411
f 527/1413 657/1412 628/1414
f 628/1414 618/1415 527/1413
f 625/1397 643/1396 629/1416
f 629/1416 630/1417 625/1397
f 630/1417 629/1416 660/1418
f 660/1418 658/1419 630/1417
f 658/1419 660/1418 662/1420
f 662/1420 631/1421 658/1419
f 631/1421 662/1420 664/1422
f 664/1422 663/1423 631/1421
f 663/1424 664/1425 632/1426
f 632/1426 633/1427 663/1424
f 633/1427 632/1426 634/1428
f 634/1428 635/1429 633/1427
f 635/1429 634/1428 646/1399
f 646/1399 644/1398 635/1429
f 618/1430 619/1431 636/1432
f 636/1432 610/1433 618/1430
f 637/1434 628/1435 596/1436
f 596/1436 638/1437 637/1434
f 619/1431 621/1438 639/1439
f 639/1439 636/1432 619/1431
f 620/1440 637/1434 638/1437
f 638/1437 640/1441 620/1440
f 621/1438 623/1442 597/1443
f 597/1443 639/1439 621/1438
f 622/1444 620/1440 640/1441
f 640/1441 641/1445 622/1444
f 623/1442 642/1446 598/1447
f 598/1447 597/1443 623/1442
f 624/1448 622/1444 641/1445
f 641/1445 599/1449 624/1448
f 642/1446 625/1450 600/1451
f 600/1451 598/1447 642/1446
f 643/1452 624/1448 599/1449
f 599/1449 601/1453 643/1452
f 644/1454 523/1455 645/1456
f 645/1456 602/1457 644/1454
f 650/1458 646/1459 603/1460
f 603/1460 647/1461 650/1458
f 523/1462 626/1463 648/1464
f 648/1464 645/1465 523/1462
f 649/1466 650/1467 647/1468
f 647/1468 651/1469 649/1466
f 626/1463 525/1470 604/1471
f 604/1471 648/1464 626/1463
f 652/1472 649/1466 651/1469
f 651/1469 605/1473 652/1472
f 525/1470 526/1474 653/1475
f 653/1475 604/1471 525/1470
f 654/1476 652/1472 605/1473
f 605/1473 606/1477 654/1476
f 526/1474 655/1478 607/1479
f 607/1479 653/1475 526/1474
f 627/1480 654/1476 606/1477
f 606/1477 608/1481 627/1480
f 655/1478 527/1482 656/1483
f 656/1483 607/1479 655/1478
f 657/1484 627/1480 608/1481
f 608/1481 609/1485 657/1484
f 527/1482 618/1486 610/1487
f 610/1487 656/1483 527/1482
f 628/1488 657/1484 609/1485
f 609/1485 596/1489 628/1488
f 625/1450 630/1490 611/1491
f 611/1491 600/1451 625/1450
f 629/1492 643/1452 601/1453
f 601/1453 612/1493 629/1492
f 630/1490 658/1494 659/1495
f 659/1495 611/1491 630/1490
f 660/1496 629/1492 612/1493
f 612/1493 661/1497 660/1496
f 658/1494 631/1498 613/1499
f 613/1499 659/1495 658/1494
f 662/1500 660/1496 661/1497
f 661/1497 614/1501 662/1500
f 631/1498 663/1502 615/1503
f 615/1503 613/1499 631/1498
f 664/1504 662/1500 614/1501
f 614/1501 665/1505 664/1504
f 663/1506 633/1507 616/1508
f 616/1508 615/1509 663/1506
f 632/1510 664/1511 665/1512
f 665/1512 666/1513 632/1510
f 633/1507 635/1514 617/1515
f 617/1515 616/1508 633/1507
f 634/1516 632/1510 666/1513
f 666/1513 667/1517 634/1516
f 635/1514 644/1454 602/1457
f 602/1457 617/1515 635/1514
f 646/1459 634/1516 667/1517
f 667/1517 603/1460 646/1459

